<svg width="118" height="39" viewBox="0 0 118 39" fill="none" xmlns="http://www.w3.org/2000/svg">
<path d="M112.3 14.2403H117.686C117.004 8.99885 113.176 6.2438 107.856 6.2438C102.471 6.2438 98.8699 9.0997 98.8699 14.0051C98.8699 19.5824 103.509 20.8254 105.974 21.3296C109.154 21.9679 112.268 22.0352 112.268 24.8573C112.268 26.7724 110.711 27.7132 108.505 27.7132C105.78 27.7132 103.963 26.3021 103.509 23.7487H98.1886C98.513 29.2588 102.374 32.2154 108.051 32.2154C113.306 32.2154 117.621 29.7292 117.621 24.3534C117.621 18.5744 112.657 17.5329 109.186 16.9953C106.818 16.6258 104.223 16.2897 104.223 13.7026C104.223 11.8883 105.553 10.7796 107.791 10.7796C110.386 10.7796 111.943 12.2917 112.3 14.2403Z" fill="#403F41"/>
<path d="M95.2361 7.08255H90.1428V31.4413H95.2361V7.08255Z" fill="#403F41"/>
<path d="M74.7661 22.9412H81.4165C80.3783 25.562 78.0425 26.8049 75.35 26.8049C70.6137 26.8049 68.4078 23.0084 68.4078 19.2454C68.4078 15.4487 70.4839 11.5849 75.3176 11.5849C78.2698 11.5849 80.4756 12.9961 81.3191 15.5159L86.8016 15.5159C85.8609 9.83792 81.0596 6.57887 75.3826 6.57887C68.3753 6.57887 63.1198 11.5177 63.1198 19.3126C63.1198 27.2082 68.8293 31.8784 75.35 31.8784C81.7733 31.8784 86.8016 27.5442 86.8016 20.7574V18.775H74.7661V22.9412Z" fill="#403F41"/>
<path d="M51.4735 6.57887C45.6341 6.57887 41.3195 10.3754 41.3519 16.6919H46.6074C46.5424 13.9368 48.2293 11.417 51.2139 11.417C53.8092 11.417 55.3339 13.2985 55.3339 15.4487C55.3339 17.599 53.8092 18.8086 50.9868 20.119C47.1263 21.8997 44.369 23.042 41.5465 24.05V31.4416H61.2057V26.469H47.7095C47.7095 26.469 47.7544 26.4545 47.7765 26.4476C50.0721 25.7272 51.7966 24.9445 53.8417 24.0164C58.2211 22.0005 60.7191 19.4805 60.7191 15.18C60.7191 9.90499 56.956 6.57887 51.4735 6.57887Z" fill="#403F41"/>
<path d="M27.5324 22.8749C20.9144 22.9085 19.8439 27.0411 19.4871 30.5353L19.3249 32.0808H17.9948L17.8326 30.5353C17.4758 27.0411 16.3728 22.9085 9.9819 22.8749C8.91138 20.5901 8.45721 18.7422 8.45721 16.6591C8.45721 11.4515 12.5772 6.57955 18.676 6.57955C24.7749 6.57955 28.83 11.4177 28.83 16.6929C28.83 18.7422 28.6354 20.5901 27.5324 22.8749ZM18.6112 0.263046C8.55462 0.263046 0.31456 8.79712 0.31456 19.2461C0.31456 29.7289 8.55462 38.2628 18.6112 38.2628C28.7651 38.2628 36.9727 29.7289 36.9727 19.2461C36.9727 8.79714 28.7651 0.263046 18.6112 0.263046Z" fill="#29B24A"/>
</svg>
