<svg width="99" height="23" viewBox="0 0 99 23" fill="none" xmlns="http://www.w3.org/2000/svg">
<path d="M0 22.9572H0.835653V15.776C0.834449 14.8388 1.04299 13.9132 1.446 13.0671C1.849 12.221 2.43625 11.4757 3.1647 10.8861C4.6807 9.56956 6.62364 8.8491 8.63148 8.85895V8.17426C7.09962 8.18668 5.593 8.56564 4.23757 9.27947C2.95068 9.93178 1.86173 10.9165 1.08365 12.1315L0.835653 12.525V8.62712H0V22.9572Z" fill="#221E1F"/>
<path d="M16.2277 7.73764C14.211 7.74335 12.2789 8.54847 10.855 9.97649C9.43098 11.4045 8.63134 13.3389 8.63135 15.3556C8.63135 17.3707 9.4315 19.3034 10.8559 20.7289C12.2804 22.1543 14.2125 22.9559 16.2277 22.9573C18.2435 22.953 20.1757 22.1511 21.602 20.7267C23.0284 19.3024 23.8331 17.3713 23.8402 15.3556C23.8317 13.3387 23.0271 11.4068 21.6015 9.98017C20.1759 8.55353 18.2445 7.74757 16.2277 7.73764ZM16.2277 22.2672C14.3955 22.2644 12.6391 21.5352 11.3436 20.2397C10.048 18.9441 9.3189 17.1878 9.31604 15.3556C9.31461 13.5205 10.0418 11.76 11.3379 10.461C12.6339 9.16191 14.3927 8.43059 16.2277 8.42773C17.1372 8.42773 18.0378 8.60696 18.878 8.95518C19.7183 9.3034 20.4816 9.81379 21.1245 10.4572C21.7674 11.1005 22.2772 11.8643 22.6247 12.7048C22.9723 13.5453 23.1508 14.446 23.1501 15.3556C23.1473 17.1896 22.4167 18.9476 21.1188 20.2435C19.8209 21.5394 18.0618 22.2672 16.2277 22.2672Z" fill="#221E1F"/>
<path d="M47.9288 22.9574H48.6081V14.2505C48.6081 12.7152 48.0001 11.2424 46.917 10.1542C45.8339 9.06607 44.3639 8.45118 42.8286 8.44405C41.6942 8.44769 40.5857 8.78356 39.64 9.41017C38.6944 10.0368 37.953 10.9267 37.5074 11.97L37.3888 12.2503L37.2648 11.9754C36.8207 10.944 36.0888 10.0624 35.1568 9.43605C34.2038 8.78552 33.0758 8.43961 31.922 8.44405C30.9495 8.41656 29.9872 8.64885 29.1344 9.11698C28.2815 9.58512 27.5688 10.2722 27.0698 11.1074L26.8272 11.4847V8.88614H26.1533V22.9574H26.8326V14.2505C26.8326 12.8921 27.3722 11.5894 28.3327 10.6289C29.2933 9.66836 30.596 9.12874 31.9544 9.12874C33.3127 9.12874 34.6155 9.66836 35.576 10.6289C36.5365 11.5894 37.0761 12.8921 37.0761 14.2505V22.9574H37.75V14.2505C37.7278 13.5664 37.8433 12.8848 38.0897 12.2463C38.3362 11.6078 38.7085 11.0253 39.1845 10.5336C39.6606 10.0418 40.2306 9.65075 40.8608 9.3837C41.491 9.11665 42.1684 8.97903 42.8529 8.97903C43.5373 8.97903 44.2148 9.11665 44.845 9.3837C45.4751 9.65075 46.0452 10.0418 46.5212 10.5336C46.9973 11.0253 47.3696 11.6078 47.616 12.2463C47.8625 12.8848 47.978 13.5664 47.9558 14.2505L47.9288 22.9574Z" fill="#221E1F"/>
<path d="M58.6573 0.400024C57.7216 0.40056 56.8075 0.680259 56.0317 1.20333C55.5367 1.51111 55.1123 1.91992 54.7862 2.40302C54.4601 2.88613 54.2397 3.43264 54.1394 4.00681C54.0203 4.56799 54.0257 5.14847 54.1551 5.70735C54.2846 6.26623 54.535 6.78994 54.8887 7.24159L56.7434 9.60837L54.0477 11.3929C53.3193 11.854 52.6942 12.4609 52.2118 13.1753C51.7293 13.8897 51.3999 14.6963 51.2442 15.5442C51.0677 16.3675 51.0728 17.2195 51.259 18.0407C51.4452 18.8619 51.8081 19.6326 52.3225 20.2993C53.017 21.2272 53.9479 21.9516 55.0181 22.3965C56.1205 22.868 57.3222 23.0601 58.5166 22.9557C59.7111 22.8513 60.8612 22.4537 61.8651 21.7981L64.7656 19.9004L66.383 21.9383H67.3858L65.4611 19.4529L67.1108 18.256H65.9625L65.0028 18.8491L55.5788 6.76715C55.2896 6.39735 55.0843 5.96901 54.9772 5.51189C54.8702 5.05477 54.8639 4.57982 54.9588 4.12002C55.0434 3.64946 55.2252 3.20171 55.4926 2.80534C55.7599 2.40896 56.1069 2.07268 56.5115 1.81794C57.3457 1.26362 58.3597 1.04772 59.3474 1.21411C60.2755 1.34049 61.1203 1.81689 61.7087 2.54576L62.3719 2.09828C61.6555 1.21217 60.6275 0.633526 59.4983 0.480894C59.2207 0.430296 58.9394 0.403244 58.6573 0.400024ZM57.9456 22.2078C57.5954 22.2073 57.2458 22.1803 56.8997 22.127C56.1342 22.0204 55.3974 21.763 54.732 21.3697C54.0666 20.9763 53.4859 20.455 53.0234 19.8357C52.5626 19.25 52.2359 18.5704 52.0664 17.8447C51.8969 17.1191 51.8886 16.3651 52.0421 15.6358C52.1776 14.8893 52.4671 14.1792 52.8923 13.5508C53.3174 12.9224 53.8688 12.3894 54.5114 11.9859L57.207 10.196L57.2825 10.2931L64.2534 19.248L61.3799 21.1512C60.3659 21.8376 59.1701 22.2056 57.9456 22.2078Z" fill="#221E1F"/>
<path d="M80.4329 22.9574H81.1122V14.2504C81.1065 12.7161 80.4937 11.2463 79.4077 10.1624C78.3218 9.07845 76.8509 8.4684 75.3165 8.46556C74.3446 8.44144 73.3836 8.67517 72.5313 9.14298C71.679 9.61079 70.9659 10.296 70.4644 11.1289L70.2271 11.5063V8.88608H69.5532V22.9574H70.2271V14.2504C70.2271 12.8921 70.7667 11.5893 71.7273 10.6288C72.6878 9.6683 73.9905 9.12869 75.3489 9.12869C76.7072 9.12869 78.01 9.6683 78.9705 10.6288C79.931 11.5893 80.4706 12.8921 80.4706 14.2504L80.4329 22.9574Z" fill="#221E1F"/>
<path d="M90.8595 8.01816C88.8796 8.02386 86.9826 8.81404 85.584 10.2156C84.1855 11.6172 83.3994 13.5159 83.398 15.4959C83.3942 16.8198 83.7435 18.1207 84.4099 19.2647C85.0762 20.4087 86.0356 21.3542 87.1891 22.004C88.3425 22.6538 89.6484 22.9843 90.9721 22.9614C92.2958 22.9385 93.5894 22.5631 94.7197 21.8738C95.8516 21.198 96.7822 20.232 97.4154 19.0757L97.6634 18.6282V22.5262H98.3427V2.3519H97.6634V12.342L97.4154 11.8945C96.7793 10.7404 95.8493 9.77511 94.7197 9.09642C93.5591 8.38309 92.2218 8.00952 90.8595 8.01816ZM90.8595 22.2782C89.0617 22.2753 87.3382 21.5598 86.0669 20.2885C84.7956 19.0172 84.0801 17.2938 84.0773 15.4959C84.0747 14.3778 84.3482 13.2764 84.8734 12.2893C85.3986 11.3023 86.1593 10.4601 87.088 9.83755C88.0168 9.21502 89.0848 8.83135 90.1974 8.7206C91.31 8.60985 92.4328 8.77544 93.466 9.20268C94.4993 9.62991 95.4111 10.3056 96.1206 11.1697C96.83 12.0339 97.3152 13.0598 97.5331 14.1565C97.751 15.2531 97.6948 16.3866 97.3696 17.4564C97.0443 18.5261 96.46 19.499 95.6686 20.2888C95.0445 20.9301 94.2961 21.4373 93.4692 21.7793C92.6423 22.1214 91.7543 22.2911 90.8595 22.2782Z" fill="#221E1F"/>
</svg>
