<svg width="99" height="23" viewBox="0 0 99 23" fill="none" xmlns="http://www.w3.org/2000/svg">
<path d="M0.5 22.9573H1.33565V15.7761C1.33445 14.8389 1.54299 13.9133 1.946 13.0671C2.349 12.221 2.93625 11.4758 3.6647 10.8861C5.1807 9.56962 7.12364 8.84917 9.13148 8.85901V8.17432C7.59962 8.18674 6.093 8.56571 4.73757 9.27953C3.45068 9.93184 2.36173 10.9165 1.58365 12.1315L1.33565 12.5251V8.62719H0.5V22.9573Z" fill="#221E1F"/>
<path d="M16.7272 7.73767C14.7106 7.74338 12.7784 8.5485 11.3545 9.97652C9.93049 11.4045 9.13085 13.3389 9.13086 15.3556C9.13086 17.3708 9.93101 19.3035 11.3555 20.7289C12.7799 22.1544 14.712 22.9559 16.7272 22.9573C18.743 22.9531 20.6752 22.1511 22.1016 20.7268C23.528 19.3024 24.3326 17.3714 24.3397 15.3556C24.3312 13.3387 23.5266 11.4068 22.101 9.9802C20.6754 8.55356 18.744 7.7476 16.7272 7.73767ZM16.7272 22.2672C14.895 22.2644 13.1387 21.5353 11.8431 20.2397C10.5475 18.9441 9.81841 17.1878 9.81556 15.3556C9.81412 13.5206 10.5413 11.7601 11.8374 10.461C13.1334 9.16194 14.8922 8.43062 16.7272 8.42776C17.6367 8.42776 18.5373 8.60699 19.3776 8.95521C20.2178 9.30343 20.9811 9.81382 21.624 10.4572C22.2669 11.1006 22.7767 11.8643 23.1243 12.7048C23.4718 13.5453 23.6504 14.4461 23.6496 15.3556C23.6468 17.1897 22.9162 18.9476 21.6183 20.2435C20.3204 21.5394 18.5613 22.2672 16.7272 22.2672Z" fill="#221E1F"/>
<path d="M48.4288 22.9575H49.1081V14.2505C49.1081 12.7152 48.5001 11.2424 47.417 10.1542C46.3339 9.0661 44.8639 8.45121 43.3286 8.44408C42.1942 8.44772 41.0857 8.78359 40.14 9.4102C39.1944 10.0368 38.453 10.9267 38.0074 11.97L37.8888 12.2503L37.7648 11.9754C37.3207 10.944 36.5888 10.0624 35.6568 9.43608C34.7038 8.78555 33.5758 8.43964 32.422 8.44408C31.4495 8.41659 30.4872 8.64888 29.6344 9.11701C28.7815 9.58515 28.0688 10.2722 27.5698 11.1074L27.3272 11.4848V8.88617H26.6533V22.9575H27.3326V14.2505C27.3326 12.8921 27.8722 11.5894 28.8327 10.6289C29.7933 9.66839 31.096 9.12878 32.4544 9.12878C33.8127 9.12878 35.1155 9.66839 36.076 10.6289C37.0365 11.5894 37.5761 12.8921 37.5761 14.2505V22.9575H38.25V14.2505C38.2278 13.5664 38.3433 12.8849 38.5897 12.2463C38.8362 11.6078 39.2085 11.0254 39.6845 10.5336C40.1606 10.0418 40.7306 9.65078 41.3608 9.38373C41.991 9.11668 42.6684 8.97906 43.3529 8.97906C44.0373 8.97906 44.7148 9.11668 45.345 9.38373C45.9751 9.65078 46.5452 10.0418 47.0212 10.5336C47.4973 11.0254 47.8696 11.6078 48.116 12.2463C48.3625 12.8849 48.478 13.5664 48.4558 14.2505L48.4288 22.9575Z" fill="#221E1F"/>
<path d="M59.157 0.400024C58.2214 0.40056 57.3072 0.680259 56.5315 1.20333C56.0365 1.51111 55.6121 1.91992 55.286 2.40302C54.9599 2.88613 54.7394 3.43264 54.6391 4.00681C54.52 4.56799 54.5254 5.14847 54.6549 5.70735C54.7844 6.26623 55.0348 6.78994 55.3885 7.24159L57.2431 9.60837L54.5475 11.3929C53.8191 11.854 53.194 12.4609 52.7115 13.1753C52.229 13.8897 51.8996 14.6963 51.744 15.5442C51.5675 16.3675 51.5725 17.2195 51.7587 18.0407C51.9449 18.8619 52.3079 19.6326 52.8222 20.2993C53.5167 21.2272 54.4477 21.9516 55.5179 22.3965C56.6203 22.868 57.822 23.0601 59.0164 22.9557C60.2108 22.8513 61.361 22.4537 62.3648 21.7981L65.2654 19.9004L66.8828 21.9383H67.8855L65.9609 19.4529L67.6106 18.256H66.4622L65.5026 18.8491L56.0786 6.76715C55.7893 6.39735 55.584 5.96901 55.477 5.51189C55.3699 5.05477 55.3636 4.57982 55.4586 4.12002C55.5432 3.64946 55.725 3.20171 55.9923 2.80534C56.2597 2.40896 56.6067 2.07268 57.0113 1.81794C57.8455 1.26362 58.8595 1.04772 59.8471 1.21411C60.7753 1.34049 61.6201 1.81689 62.2085 2.54576L62.8716 2.09828C62.1553 1.21217 61.1272 0.633526 59.9981 0.480894C59.7205 0.430296 59.4391 0.403244 59.157 0.400024ZM58.4454 22.2078C58.0952 22.2073 57.7456 22.1803 57.3995 22.127C56.6339 22.0204 55.8971 21.763 55.2317 21.3697C54.5664 20.9763 53.9856 20.455 53.5231 19.8357C53.0624 19.25 52.7357 18.5704 52.5662 17.8447C52.3966 17.1191 52.3883 16.3651 52.5419 15.6358C52.6774 14.8893 52.9669 14.1792 53.392 13.5508C53.8172 12.9224 54.3686 12.3894 55.0111 11.9859L57.7068 10.196L57.7822 10.2931L64.7532 19.248L61.8796 21.1512C60.8657 21.8376 59.6698 22.2056 58.4454 22.2078Z" fill="#221E1F"/>
<path d="M80.9324 22.9574H81.6117V14.2504C81.606 12.7161 80.9932 11.2463 79.9072 10.1624C78.8213 9.07845 77.3504 8.4684 75.816 8.46556C74.8441 8.44144 73.8831 8.67517 73.0308 9.14298C72.1786 9.61079 71.4654 10.296 70.9639 11.1289L70.7266 11.5063V8.88608H70.0527V22.9574H70.7266V14.2504C70.7266 12.8921 71.2663 11.5893 72.2268 10.6288C73.1873 9.6683 74.49 9.12869 75.8484 9.12869C77.2068 9.12869 78.5095 9.6683 79.47 10.6288C80.4305 11.5893 80.9701 12.8921 80.9701 14.2504L80.9324 22.9574Z" fill="#221E1F"/>
<path d="M91.3591 8.01819C89.3791 8.0239 87.4821 8.81407 86.0835 10.2156C84.685 11.6172 83.8989 13.5159 83.8975 15.4959C83.8937 16.8198 84.243 18.1208 84.9094 19.2647C85.5758 20.4087 86.5351 21.3543 87.6886 22.0041C88.842 22.6538 90.1479 22.9843 91.4716 22.9614C92.7953 22.9385 94.0889 22.5631 95.2192 21.8738C96.3511 21.198 97.2817 20.232 97.9149 19.0758L98.1629 18.6283V22.5262H98.8422V2.35193H98.1629V12.342L97.9149 11.8945C97.2788 10.7405 96.3488 9.77514 95.2192 9.09645C94.0587 8.38312 92.7213 8.00955 91.3591 8.01819ZM91.3591 22.2782C89.5612 22.2753 87.8377 21.5599 86.5664 20.2886C85.2951 19.0173 84.5797 17.2938 84.5768 15.4959C84.5742 14.3778 84.8477 13.2764 85.3729 12.2893C85.8981 11.3023 86.6588 10.4601 87.5876 9.83758C88.5163 9.21505 89.5844 8.83138 90.697 8.72063C91.8095 8.60988 92.9323 8.77547 93.9655 9.20271C94.9988 9.62994 95.9106 10.3056 96.6201 11.1698C97.3295 12.0339 97.8148 13.0598 98.0326 14.1565C98.2505 15.2532 98.1943 16.3866 97.8691 17.4564C97.5438 18.5261 96.9596 19.499 96.1681 20.2888C95.544 20.9301 94.7956 21.4373 93.9687 21.7794C93.1418 22.1214 92.2538 22.2912 91.3591 22.2782Z" fill="#221E1F"/>
</svg>
