<svg width="27" height="26" viewBox="0 0 27 26" fill="none" xmlns="http://www.w3.org/2000/svg">
<path d="M23.1546 6.31006H3.90802L1.18445 25.1935H25.969L23.1546 6.31006Z" stroke="black" stroke-miterlimit="10"/>
<path d="M18.1614 10.7588V5.13008C18.1614 2.58808 16.0733 0.5 13.5313 0.5C10.9893 0.5 8.90125 2.58808 8.90125 5.13008V10.7588" stroke="black" stroke-miterlimit="10"/>
<path d="M8.99205 12.302C9.54359 12.302 9.9907 11.8549 9.9907 11.3033C9.9907 10.7518 9.54359 10.3047 8.99205 10.3047C8.44052 10.3047 7.99341 10.7518 7.99341 11.3033C7.99341 11.8549 8.44052 12.302 8.99205 12.302Z" fill="black"/>
<path d="M18.1614 12.302C18.7129 12.302 19.16 11.8549 19.16 11.3033C19.16 10.7518 18.7129 10.3047 18.1614 10.3047C17.6098 10.3047 17.1627 10.7518 17.1627 11.3033C17.1627 11.8549 17.6098 12.302 18.1614 12.302Z" fill="black"/>
</svg>
