<svg width="28" height="41" viewBox="0 0 28 41" fill="none" xmlns="http://www.w3.org/2000/svg">
<path d="M10.1122 30.731C9.05758 31.1411 8.67675 31.229 7.8565 30.8482C6.71401 30.3502 6.06953 30.5552 5.68871 31.434C5.30788 32.2836 5.89377 33.5433 7.71003 33.6018C8.9404 33.6311 10.2587 32.9574 10.8738 32.1078C11.489 31.2876 11.1668 30.3209 10.1122 30.731Z" fill="#353430"/>
<path d="M22.0937 31.2877C21.6543 30.2624 20.8047 30.028 19.5451 30.5553C18.842 30.8775 18.5198 30.819 17.5237 30.4381C16.7621 30.1452 16.3813 30.4967 16.2641 30.6432C15.9418 31.0533 16.0297 31.6978 16.4106 32.2544C17.1136 33.1918 18.4905 33.8656 19.7208 33.8656C19.7501 33.8656 19.8087 33.8656 19.838 33.8656C21.1856 33.807 21.7715 33.1918 21.9765 32.811C22.2695 32.3716 22.2988 31.7857 22.0937 31.2877ZM21.4785 32.518C21.1856 32.9868 20.5997 33.2504 19.8087 33.2797C18.6076 33.309 17.4066 32.6059 16.8793 31.9029C16.6156 31.522 16.5863 31.1705 16.7328 30.9947C16.7914 30.9068 16.8793 30.8775 16.9964 30.8775C17.1136 30.8775 17.2601 30.9361 17.348 30.9654C18.4319 31.3756 18.9006 31.4927 19.838 31.0826C20.9512 30.6139 21.3613 30.9068 21.5957 31.522C21.6836 31.8443 21.6543 32.2251 21.4785 32.518Z" fill="#353430"/>
<path d="M14.9459 33.5725C14.7701 33.5725 14.6529 33.6897 14.6529 33.8655C14.6529 34.3049 14.3014 34.6564 13.862 34.6564C13.4225 34.6564 13.071 34.3049 13.071 33.8655C13.071 33.6897 12.9538 33.5725 12.7781 33.5725C12.6023 33.5725 12.4851 33.6897 12.4851 33.8655C12.4851 34.6271 13.1003 35.2423 13.862 35.2423C14.6236 35.2423 15.2388 34.6271 15.2388 33.8655C15.2388 33.6897 15.1216 33.5725 14.9459 33.5725Z" fill="#353430"/>
<path d="M19.135 29.9401C20.2189 29.9401 21.2442 29.4421 21.918 28.5926C22.0059 28.4754 22.0059 28.2703 21.8594 28.1824C21.7422 28.0946 21.5371 28.0946 21.4493 28.241C20.8927 28.9441 20.0431 29.3542 19.135 29.3542C18.2269 29.3542 17.3773 28.9441 16.8207 28.2117C16.7328 28.0946 16.5278 28.0653 16.4106 28.1532C16.2934 28.241 16.2641 28.4461 16.352 28.5633C17.0258 29.4421 18.0511 29.9401 19.135 29.9401Z" fill="#353430"/>
<path d="M10.698 28.2117C10.1414 28.9148 9.2919 29.3249 8.38377 29.3249C7.47563 29.3249 6.62609 28.9148 6.0695 28.1824C5.98161 28.0653 5.77655 28.036 5.65937 28.1239C5.54219 28.2117 5.5129 28.4168 5.60078 28.534C6.27456 29.3835 7.29987 29.8815 8.38377 29.8815C9.46766 29.8815 10.493 29.3835 11.1667 28.534C11.2546 28.4168 11.2546 28.2117 11.1082 28.1239C10.991 28.0653 10.8152 28.0946 10.698 28.2117Z" fill="#353430"/>
<path d="M22.8553 10.2542C23.2362 8.49648 22.6796 6.62162 21.332 5.06901C20.0724 3.60428 18.344 2.72545 16.8792 2.78404C14.7993 0.381883 11.0496 0.381883 7.15345 2.78404C5.19071 4.01441 3.52092 5.71349 2.5542 7.47117C1.4996 9.40461 1.29454 11.3088 1.99761 12.9785C1.85113 13.2422 1.70466 13.4766 1.55819 13.7402C-0.756083 18.2516 -0.492431 23.2902 2.34914 28.6804C2.34914 28.7097 2.34914 28.7683 2.34914 28.7976C2.34914 34.9788 7.53428 40.0174 13.8912 40.0174C19.4572 40.0174 24.115 36.1798 25.1989 31.0826C32.0831 21.7669 24.2908 11.8946 22.8553 10.2542ZM25.404 28.534C25.2575 22.5872 20.336 17.7829 14.2427 17.6071C17.6995 16.1424 21.0391 14.4726 22.4159 11.5724C23.2362 12.5977 24.6716 14.619 25.6969 17.1677C27.3374 21.2689 27.2202 25.0772 25.404 28.534ZM7.76863 3.78005C10.1415 2.31532 13.4225 1.3486 15.4731 3.04769C12.6901 3.86794 6.50897 6.68021 2.84715 11.6896C2.31985 8.87731 4.80988 5.62561 7.76863 3.78005ZM2.64209 14.2675C6.15743 7.50046 15.063 4.16088 16.7035 3.95582C17.8753 3.80935 19.3693 4.57101 20.4532 5.83067C21.625 7.17822 22.0644 8.81872 21.6543 10.2542C20.6875 13.623 16.5863 15.3514 12.6315 17.0212C11.1961 17.6364 9.70208 18.2516 8.38382 18.9546C5.45436 20.5072 3.31586 23.2316 2.5835 26.4833C0.708645 22.0599 0.708645 17.9586 2.64209 14.2675ZM13.8912 38.8749C8.17876 38.8749 3.52092 34.3636 3.52092 28.8269C3.52092 23.2902 8.17876 18.7789 13.8912 18.7789C19.6036 18.7789 24.2615 23.2902 24.2615 28.8269C24.2615 34.3636 19.6036 38.8749 13.8912 38.8749Z" fill="#353430"/>
</svg>
