<svg width="124" height="70" viewBox="0 0 124 70" fill="none" xmlns="http://www.w3.org/2000/svg">
<path d="M56.744 23.7979C57.3093 24.2566 57.928 24.4859 58.6 24.4859C59.1333 24.4859 59.5707 24.3099 59.912 23.9579C60.264 23.6059 60.44 23.1526 60.44 22.5979C60.44 22.0112 60.2213 21.5366 59.784 21.1739C59.3573 20.8006 58.7813 20.6139 58.056 20.6139C57.672 20.6139 57.3573 20.6352 57.112 20.6779C57.0907 20.6779 57.064 20.6779 57.032 20.6779L56.984 20.6939C56.7813 20.6939 56.6213 20.6352 56.504 20.5179C56.3867 20.4006 56.328 20.2459 56.328 20.0539C56.328 20.0432 56.328 20.0219 56.328 19.9899C56.3387 19.9579 56.344 19.9366 56.344 19.9259L56.872 15.5419C56.8933 15.3712 56.968 15.2326 57.096 15.1259C57.224 15.0086 57.3733 14.9499 57.544 14.9499H61.656C61.816 14.9499 61.9547 15.0086 62.072 15.1259C62.1893 15.2432 62.248 15.3819 62.248 15.5419V16.1979C62.248 16.3579 62.1893 16.4966 62.072 16.6139C61.9547 16.7312 61.816 16.7899 61.656 16.7899H58.568L58.248 19.0139C58.4613 18.9712 58.6747 18.9499 58.888 18.9499C59.912 18.9499 60.7547 19.2752 61.416 19.9259C62.0773 20.5872 62.408 21.4512 62.408 22.5179C62.408 23.6806 62.04 24.6086 61.304 25.3019C60.5787 25.9846 59.6613 26.3259 58.552 26.3259C57.496 26.3259 56.4933 25.8832 55.544 24.9979C55.4267 24.8806 55.368 24.7472 55.368 24.5979C55.368 24.4272 55.4213 24.2886 55.528 24.1819L55.864 23.8139C55.9707 23.6859 56.1093 23.6219 56.28 23.6219C56.44 23.6219 56.5947 23.6806 56.744 23.7979ZM59.416 38.6219L57.864 36.7499V40.5579C57.864 40.7179 57.8053 40.8566 57.688 40.9739C57.5707 41.0912 57.432 41.1499 57.272 41.1499H56.616C56.456 41.1499 56.3173 41.0912 56.2 40.9739C56.0827 40.8566 56.024 40.7179 56.024 40.5579V34.5419C56.024 34.3819 56.0827 34.2432 56.2 34.1259C56.3173 34.0086 56.456 33.9499 56.616 33.9499H57.256C57.5227 33.9499 57.768 34.0779 57.992 34.3339L60.136 36.9579L62.152 34.3339C62.3547 34.0779 62.6 33.9499 62.888 33.9499H63.48C63.64 33.9499 63.7787 34.0086 63.896 34.1259C64.0133 34.2432 64.072 34.3819 64.072 34.5419V40.5579C64.072 40.7179 64.0133 40.8566 63.896 40.9739C63.7787 41.0912 63.64 41.1499 63.48 41.1499H62.824C62.664 41.1499 62.5253 41.0912 62.408 40.9739C62.2907 40.8566 62.232 40.7179 62.232 40.5579V36.7499L60.728 38.6219C60.5467 38.8352 60.328 38.9419 60.072 38.9419C59.7947 38.9419 59.576 38.8352 59.416 38.6219ZM72.8057 41.1499H72.1498C71.9898 41.1499 71.8511 41.0912 71.7337 40.9739C71.6164 40.8566 71.5578 40.7179 71.5578 40.5579V36.5899L68.4857 40.7499C68.2937 41.0166 68.0377 41.1499 67.7177 41.1499H66.9497C66.7897 41.1499 66.6511 41.0912 66.5337 40.9739C66.4164 40.8566 66.3577 40.7179 66.3577 40.5579V34.5419C66.3577 34.3819 66.4164 34.2432 66.5337 34.1259C66.6511 34.0086 66.7897 33.9499 66.9497 33.9499H67.6057C67.7657 33.9499 67.9044 34.0086 68.0217 34.1259C68.1391 34.2432 68.1977 34.3819 68.1977 34.5419V38.5099L71.2698 34.3499C71.4618 34.0832 71.7178 33.9499 72.0378 33.9499H72.8057C72.9658 33.9499 73.1044 34.0086 73.2218 34.1259C73.3391 34.2432 73.3977 34.3819 73.3977 34.5419V40.5579C73.3977 40.7179 73.3391 40.8566 73.2218 40.9739C73.1044 41.0912 72.9658 41.1499 72.8057 41.1499ZM81.2755 33.9499H81.9315C82.0915 33.9499 82.2302 34.0086 82.3475 34.1259C82.4648 34.2432 82.5235 34.3819 82.5235 34.5419V40.5579C82.5235 40.7179 82.4648 40.8566 82.3475 40.9739C82.2302 41.0912 82.0915 41.1499 81.9315 41.1499H81.2755C81.1155 41.1499 80.9768 41.0912 80.8595 40.9739C80.7422 40.8566 80.6835 40.7179 80.6835 40.5579V38.3979H77.5315V40.5579C77.5315 40.7179 77.4728 40.8566 77.3555 40.9739C77.2382 41.0912 77.0995 41.1499 76.9395 41.1499H76.2835C76.1235 41.1499 75.9848 41.0912 75.8675 40.9739C75.7502 40.8566 75.6915 40.7179 75.6915 40.5579V34.5419C75.6915 34.3819 75.7502 34.2432 75.8675 34.1259C75.9848 34.0086 76.1235 33.9499 76.2835 33.9499H76.9395C77.0995 33.9499 77.2382 34.0086 77.3555 34.1259C77.4728 34.2432 77.5315 34.3819 77.5315 34.5419V36.6699H80.6835V34.5419C80.6835 34.3819 80.7422 34.2432 80.8595 34.1259C80.9768 34.0086 81.1155 33.9499 81.2755 33.9499ZM86.1825 34.3979L87.6705 37.8859C87.6918 37.9392 87.8092 38.2859 88.0225 38.9259C88.0865 38.5312 88.1718 38.1792 88.2785 37.8699L89.3825 34.5099C89.5105 34.1366 89.7718 33.9499 90.1665 33.9499H90.6305C90.8225 33.9499 90.9878 34.0192 91.1265 34.1579C91.2652 34.2966 91.3345 34.4619 91.3345 34.6539C91.3345 34.7392 91.3185 34.8299 91.2865 34.9259L88.8385 41.1499C88.3478 42.4192 87.8998 43.2726 87.4945 43.7099C87.0998 44.1366 86.6198 44.3499 86.0545 44.3499C85.6385 44.3499 85.2332 44.2486 84.8385 44.0459C84.6465 43.9499 84.5505 43.7952 84.5505 43.5819C84.5505 43.5072 84.5665 43.4379 84.5985 43.3739L84.8065 42.9419C84.9132 42.7072 85.0678 42.5899 85.2705 42.5899C85.3665 42.5899 85.4892 42.6059 85.6385 42.6379C85.6705 42.6486 85.7398 42.6539 85.8465 42.6539C86.2838 42.6539 86.6518 42.2806 86.9505 41.5339L87.1105 41.1499L84.2145 34.8939C84.1718 34.7979 84.1505 34.7072 84.1505 34.6219C84.1505 34.4406 84.2145 34.2859 84.3425 34.1579C84.4705 34.0192 84.6305 33.9499 84.8225 33.9499H85.5105C85.8305 33.9499 86.0545 34.0992 86.1825 34.3979ZM95.8949 41.1499H95.2389C95.0789 41.1499 94.9402 41.0912 94.8229 40.9739C94.7055 40.8566 94.6469 40.7179 94.6469 40.5579V35.7899H92.8709C92.7109 35.7899 92.5722 35.7312 92.4549 35.6139C92.3375 35.4966 92.2789 35.3579 92.2789 35.1979V34.5419C92.2789 34.3819 92.3375 34.2432 92.4549 34.1259C92.5722 34.0086 92.7109 33.9499 92.8709 33.9499H98.2469C98.4069 33.9499 98.5455 34.0086 98.6629 34.1259C98.7802 34.2432 98.8389 34.3819 98.8389 34.5419V35.1979C98.8389 35.3579 98.7802 35.4966 98.6629 35.6139C98.5455 35.7312 98.4069 35.7899 98.2469 35.7899H96.4869V40.5579C96.4869 40.7179 96.4282 40.8566 96.3109 40.9739C96.1935 41.0912 96.0549 41.1499 95.8949 41.1499ZM62.472 56.1499H61.816C61.656 56.1499 61.5173 56.0912 61.4 55.9739C61.2827 55.8566 61.224 55.7179 61.224 55.5579V51.5899L58.152 55.7499C57.96 56.0166 57.704 56.1499 57.384 56.1499H56.616C56.456 56.1499 56.3173 56.0912 56.2 55.9739C56.0827 55.8566 56.024 55.7179 56.024 55.5579V49.5419C56.024 49.3819 56.0827 49.2432 56.2 49.1259C56.3173 49.0086 56.456 48.9499 56.616 48.9499H57.272C57.432 48.9499 57.5707 49.0086 57.688 49.1259C57.8053 49.2432 57.864 49.3819 57.864 49.5419V53.5099L60.936 49.3499C61.128 49.0832 61.384 48.9499 61.704 48.9499H62.472C62.632 48.9499 62.7707 49.0086 62.888 49.1259C63.0053 49.2432 63.064 49.3819 63.064 49.5419V55.5579C63.064 55.7179 63.0053 55.8566 62.888 55.9739C62.7707 56.0912 62.632 56.1499 62.472 56.1499ZM71.8204 48.8699C73.9964 48.8699 75.0844 49.4992 75.0844 50.7579C75.0844 51.1632 74.9564 51.5206 74.7004 51.8299C74.4444 52.1286 74.1244 52.3099 73.7404 52.3739C74.7644 52.6299 75.2764 53.1899 75.2764 54.0539C75.2764 55.5046 74.135 56.2299 71.8524 56.2299C71.7777 56.2299 71.367 56.2192 70.6204 56.1979C70.4604 56.1979 70.295 56.1926 70.1244 56.1819C69.9644 56.1819 69.8417 56.1766 69.7564 56.1659C69.671 56.1659 69.6124 56.1659 69.5804 56.1659C69.4097 56.1552 69.2657 56.0966 69.1484 55.9899C69.0417 55.8726 68.9884 55.7286 68.9884 55.5579V49.5419C68.9884 49.3712 69.0417 49.2326 69.1484 49.1259C69.2657 49.0086 69.4097 48.9446 69.5804 48.9339C70.3057 48.8912 71.0524 48.8699 71.8204 48.8699ZM71.9804 53.0939H70.8284V54.6939C71.4684 54.7366 71.8737 54.7579 72.0444 54.7579C72.4497 54.7579 72.7644 54.6832 72.9884 54.5339C73.223 54.3846 73.3404 54.1819 73.3404 53.9259C73.3404 53.3712 72.887 53.0939 71.9804 53.0939ZM70.8284 50.3899V51.9739H72.0284C72.359 51.9739 72.6257 51.8992 72.8284 51.7499C73.031 51.6006 73.1324 51.3979 73.1324 51.1419C73.1324 50.6192 72.7484 50.3579 71.9804 50.3579C71.5537 50.3579 71.1697 50.3686 70.8284 50.3899ZM79.0996 49.5419V50.9179H79.9956C81.073 50.9179 81.8676 51.1419 82.3796 51.5899C82.9023 52.0379 83.1636 52.6459 83.1636 53.4139C83.1636 54.2352 82.8863 54.8966 82.3316 55.3979C81.777 55.8992 80.9503 56.1499 79.8516 56.1499H77.8516C77.6916 56.1499 77.553 56.0912 77.4356 55.9739C77.3183 55.8566 77.2596 55.7179 77.2596 55.5579V49.5419C77.2596 49.3819 77.3183 49.2432 77.4356 49.1259C77.553 49.0086 77.6916 48.9499 77.8516 48.9499H78.5076C78.6676 48.9499 78.8063 49.0086 78.9236 49.1259C79.041 49.2432 79.0996 49.3819 79.0996 49.5419ZM84.7796 48.9499H85.4356C85.5956 48.9499 85.7343 49.0086 85.8516 49.1259C85.969 49.2432 86.0276 49.3819 86.0276 49.5419V55.5579C86.0276 55.7179 85.969 55.8566 85.8516 55.9739C85.7343 56.0912 85.5956 56.1499 85.4356 56.1499H84.7796C84.6196 56.1499 84.481 56.0912 84.3636 55.9739C84.2463 55.8566 84.1876 55.7179 84.1876 55.5579V49.5419C84.1876 49.3819 84.2463 49.2432 84.3636 49.1259C84.481 49.0086 84.6196 48.9499 84.7796 48.9499ZM79.8356 52.3899H79.0996V54.5499H79.8196C80.7476 54.5499 81.2116 54.1926 81.2116 53.4779C81.2116 52.7526 80.753 52.3899 79.8356 52.3899ZM88.7441 48.9499H89.3521C89.6615 48.9499 89.9068 49.0886 90.0881 49.3659L91.3521 51.3339L92.6481 49.3499C92.8188 49.0832 93.0695 48.9499 93.4001 48.9499H93.8801C94.0615 48.9499 94.2055 49.0086 94.3121 49.1259C94.4295 49.2432 94.4881 49.3872 94.4881 49.5579C94.4881 49.6859 94.4508 49.8032 94.3761 49.9099L92.6481 52.3899L94.5521 55.1739C94.6268 55.2806 94.6641 55.3979 94.6641 55.5259C94.6641 55.6966 94.6055 55.8459 94.4881 55.9739C94.3708 56.0912 94.2215 56.1499 94.0401 56.1499H93.4481C93.1281 56.1499 92.8775 56.0112 92.6961 55.7339L91.2881 53.5579L89.8161 55.7499C89.6455 56.0166 89.3948 56.1499 89.0641 56.1499H88.5841C88.4028 56.1499 88.2535 56.0912 88.1361 55.9739C88.0295 55.8566 87.9761 55.7126 87.9761 55.5419C87.9761 55.4139 88.0135 55.2966 88.0881 55.1899L89.9761 52.4859L88.2321 49.9259C88.1575 49.8192 88.1201 49.7019 88.1201 49.5739C88.1201 49.4032 88.1788 49.2592 88.2961 49.1419C88.4135 49.0139 88.5628 48.9499 88.7441 48.9499ZM102.497 55.2539C101.782 55.9686 100.833 56.3259 99.6491 56.3259C98.4758 56.3259 97.5318 55.9686 96.8171 55.2539C96.0918 54.5499 95.7291 53.6486 95.7291 52.5499C95.7291 51.4619 96.0918 50.5552 96.8171 49.8299C97.5425 49.1259 98.4865 48.7739 99.6491 48.7739C100.833 48.7739 101.782 49.1259 102.497 49.8299C103.212 50.5446 103.569 51.4512 103.569 52.5499C103.569 53.6486 103.212 54.5499 102.497 55.2539ZM99.6491 50.5019C99.0945 50.5019 98.6305 50.6939 98.2571 51.0779C97.8838 51.4619 97.6971 51.9526 97.6971 52.5499C97.6971 53.1472 97.8785 53.6432 98.2411 54.0379C98.6145 54.4219 99.0838 54.6139 99.6491 54.6139C100.225 54.6139 100.694 54.4219 101.057 54.0379C101.43 53.6539 101.617 53.1579 101.617 52.5499C101.617 51.9526 101.43 51.4619 101.057 51.0779C100.684 50.6939 100.214 50.5019 99.6491 50.5019ZM114.276 49.8139L112.484 52.4379L114.468 55.2859C114.532 55.3819 114.564 55.4832 114.564 55.5899C114.564 55.7499 114.511 55.8832 114.404 55.9899C114.308 56.0966 114.18 56.1499 114.02 56.1499H113.396C113.044 56.1499 112.783 56.0059 112.612 55.7179L110.756 52.8539C110.671 52.7046 110.628 52.5606 110.628 52.4219C110.628 52.2939 110.665 52.1606 110.74 52.0219L112.436 49.3659C112.617 49.0886 112.863 48.9499 113.172 48.9499H113.828C113.988 48.9499 114.116 49.0032 114.212 49.1099C114.319 49.2166 114.372 49.3499 114.372 49.5099C114.372 49.6166 114.34 49.7179 114.276 49.8139ZM109.156 48.9499H109.812C109.972 48.9499 110.111 49.0086 110.228 49.1259C110.345 49.2432 110.404 49.3819 110.404 49.5419V55.5579C110.404 55.7179 110.345 55.8566 110.228 55.9739C110.111 56.0912 109.972 56.1499 109.812 56.1499H109.156C108.996 56.1499 108.857 56.0912 108.74 55.9739C108.623 55.8566 108.564 55.7179 108.564 55.5579V49.5419C108.564 49.3819 108.623 49.2432 108.74 49.1259C108.857 49.0086 108.996 48.9499 109.156 48.9499ZM104.548 55.2859L106.5 52.4379L104.692 49.8139C104.628 49.7179 104.596 49.6166 104.596 49.5099C104.596 49.3499 104.644 49.2166 104.74 49.1099C104.847 49.0032 104.98 48.9499 105.14 48.9499H105.828C106.169 48.9499 106.431 49.0939 106.612 49.3819L108.228 52.0219C108.409 52.2992 108.409 52.5766 108.228 52.8539L106.404 55.7339C106.223 56.0112 105.977 56.1499 105.668 56.1499H104.996C104.836 56.1499 104.703 56.0966 104.596 55.9899C104.5 55.8832 104.452 55.7499 104.452 55.5899C104.452 55.4832 104.484 55.3819 104.548 55.2859ZM117.643 49.3979L119.131 52.8859C119.152 52.9392 119.269 53.2859 119.483 53.9259C119.547 53.5312 119.632 53.1792 119.739 52.8699L120.843 49.5099C120.971 49.1366 121.232 48.9499 121.627 48.9499H122.091C122.283 48.9499 122.448 49.0192 122.587 49.1579C122.725 49.2966 122.795 49.4619 122.795 49.6539C122.795 49.7392 122.779 49.8299 122.747 49.9259L120.299 56.1499C119.808 57.4192 119.36 58.2726 118.955 58.7099C118.56 59.1366 118.08 59.3499 117.515 59.3499C117.099 59.3499 116.693 59.2486 116.299 59.0459C116.107 58.9499 116.011 58.7952 116.011 58.5819C116.011 58.5072 116.027 58.4379 116.059 58.3739L116.267 57.9419C116.373 57.7072 116.528 57.5899 116.731 57.5899C116.827 57.5899 116.949 57.6059 117.099 57.6379C117.131 57.6486 117.2 57.6539 117.307 57.6539C117.744 57.6539 118.112 57.2806 118.411 56.5339L118.571 56.1499L115.675 49.8939C115.632 49.7979 115.611 49.7072 115.611 49.6219C115.611 49.4406 115.675 49.2859 115.803 49.1579C115.931 49.0192 116.091 48.9499 116.283 48.9499H116.971C117.291 48.9499 117.515 49.0992 117.643 49.3979Z" fill="#353430"/>
<path d="M18.0575 53.1225C16.1742 53.8548 15.4942 54.0118 14.0295 53.3317C11.9893 52.4424 10.8385 52.8086 10.1584 54.378C9.47835 55.895 10.5246 58.1444 13.7679 58.249C15.965 58.3013 18.319 57.0982 19.4176 55.5811C20.5161 54.1164 19.9407 52.3901 18.0575 53.1225Z" fill="#353430"/>
<path d="M39.453 54.1166C38.6683 52.2857 37.1512 51.8672 34.9018 52.8088C33.6464 53.3842 33.0709 53.2796 31.2923 52.5995C29.9322 52.0764 29.2522 52.7042 29.0429 52.9657C28.4675 53.6981 28.6244 54.8489 29.3045 55.8429C30.56 57.5168 33.0186 58.72 35.2157 58.72C35.268 58.72 35.3726 58.72 35.425 58.72C37.8313 58.6154 38.8775 57.5168 39.2437 56.8368C39.7668 56.0521 39.8191 55.0059 39.453 54.1166ZM38.3544 56.3137C37.8313 57.1507 36.7851 57.6215 35.3726 57.6738C33.2279 57.7261 31.0831 56.4706 30.1415 55.2151C29.6707 54.5351 29.6184 53.9073 29.8799 53.5935C29.9845 53.4365 30.1415 53.3842 30.3507 53.3842C30.56 53.3842 30.8215 53.4888 30.9785 53.5412C32.914 54.2735 33.751 54.4828 35.425 53.7504C37.4128 52.9134 38.1452 53.4365 38.5637 54.5351C38.7206 55.1105 38.6683 55.7906 38.3544 56.3137Z" fill="#353430"/>
<path d="M26.689 58.1968C26.3751 58.1968 26.1659 58.406 26.1659 58.7199C26.1659 59.5046 25.5381 60.1323 24.7535 60.1323C23.9688 60.1323 23.341 59.5046 23.341 58.7199C23.341 58.406 23.1318 58.1968 22.8179 58.1968C22.504 58.1968 22.2948 58.406 22.2948 58.7199C22.2948 60.08 23.3933 61.1785 24.7535 61.1785C26.1136 61.1785 27.2121 60.08 27.2121 58.7199C27.2121 58.406 27.0029 58.1968 26.689 58.1968Z" fill="#353430"/>
<path d="M34.1694 51.71C36.1049 51.71 37.9358 50.8207 39.139 49.3037C39.2959 49.0944 39.2959 48.7282 39.0344 48.5713C38.8251 48.4144 38.4589 48.4144 38.302 48.6759C37.3081 49.9314 35.791 50.6638 34.1694 50.6638C32.5477 50.6638 31.0307 49.9314 30.0368 48.6236C29.8798 48.4144 29.5136 48.362 29.3044 48.519C29.0951 48.6759 29.0428 49.0421 29.1998 49.2513C30.4029 50.8207 32.2339 51.71 34.1694 51.71Z" fill="#353430"/>
<path d="M19.1038 48.6239C18.1098 49.8794 16.5928 50.6118 14.9711 50.6118C13.3495 50.6118 11.8324 49.8794 10.8385 48.5716C10.6816 48.3624 10.3154 48.31 10.1062 48.467C9.8969 48.6239 9.84459 48.9901 10.0015 49.1993C11.2047 50.7164 13.0356 51.6057 14.9711 51.6057C16.9067 51.6057 18.7376 50.7164 19.9408 49.1993C20.0977 48.9901 20.0977 48.6239 19.8361 48.467C19.6269 48.3624 19.313 48.4147 19.1038 48.6239Z" fill="#353430"/>
<path d="M40.8131 16.5567C41.4931 13.418 40.4992 10.07 38.0929 7.29748C35.8435 4.6819 32.7571 3.11255 30.1415 3.21717C26.4274 -1.07239 19.7315 -1.07239 12.774 3.21717C9.26913 5.41426 6.28736 8.44834 4.56108 11.587C2.67785 15.0396 2.31167 18.4399 3.56715 21.4216C3.30559 21.8925 3.04404 22.3109 2.78248 22.7817C-1.35015 30.8377 -0.879342 39.8354 4.19489 49.4607C4.19489 49.513 4.19489 49.6177 4.19489 49.67C4.19489 60.7077 13.4541 69.7054 24.8057 69.7054C34.7449 69.7054 43.0625 62.8525 44.998 53.7503C57.2913 37.1152 43.3764 19.4861 40.8131 16.5567ZM45.3642 49.1992C45.1027 38.5799 36.3143 30.0008 25.4334 29.6869C31.6062 27.0713 37.5698 24.0895 40.0284 18.9107C41.4931 20.7416 44.0564 24.3511 45.8873 28.9022C48.8168 36.2259 48.6075 43.0264 45.3642 49.1992ZM13.8726 4.99577C18.1098 2.38018 23.9687 0.653896 27.6305 3.68798C22.6609 5.1527 11.6232 10.1746 5.08419 19.1199C4.14258 14.098 8.58908 8.29141 13.8726 4.99577ZM4.71801 23.7234C10.9954 11.6394 26.8982 5.67582 29.8276 5.30964C31.9201 5.04808 34.588 6.40818 36.5235 8.65759C38.616 11.0639 39.4007 13.9934 38.6683 16.5567C36.942 22.5725 29.6184 25.6589 22.5563 28.6407C19.993 29.7392 17.3251 30.8378 14.9711 32.0932C9.73994 34.8658 5.92118 39.7307 4.61339 45.5373C1.26544 37.6383 1.26544 30.3146 4.71801 23.7234ZM24.8057 67.6652C14.6049 67.6652 6.28736 59.6092 6.28736 49.7223C6.28736 39.8354 14.6049 31.7794 24.8057 31.7794C35.0065 31.7794 43.3241 39.8354 43.3241 49.7223C43.3241 59.6092 35.0065 67.6652 24.8057 67.6652Z" fill="#353430"/>
</svg>
