<svg width="118" height="35" viewBox="0 0 118 35" fill="none" xmlns="http://www.w3.org/2000/svg">
<path d="M112.536 29.8693C114.846 29.8693 116.482 29.4523 117.701 28.5541V24.4804C116.45 25.3465 114.942 25.8918 112.825 25.8918C109.264 25.8918 107.789 23.1332 107.789 18.7707C107.789 14.1838 109.585 11.8422 112.857 11.8422C114.782 11.8422 116.674 12.5158 117.669 13.1573V8.92319C116.61 8.34581 114.782 7.92881 112.28 7.92881C105.896 7.92881 102.593 12.5158 102.593 18.9311C102.625 25.9559 105.864 29.8693 112.536 29.8693ZM81.3257 28.0088V23.9351C79.786 24.9936 77.1557 25.9239 74.7499 25.9239C71.0932 25.9239 69.7139 24.1917 69.4893 20.6633H81.5502V18.033C81.5502 10.6874 78.3104 7.92881 73.3385 7.92881C67.244 7.92881 64.3571 12.5799 64.3571 18.9632C64.3571 26.3088 67.9817 29.8693 74.3329 29.8693C77.5085 29.8693 79.8501 29.0032 81.3257 28.0088ZM35.5522 8.31373V16.6537H28.8802V8.31373H23.8762V29.4523H28.8802V20.6312H35.5522V29.4523H40.5561V8.31373H35.5522ZM63.1061 25.4748H60.8928V8.31373H46.3299V10.11C46.3299 15.2744 46.0092 21.9463 44.2449 25.4748H42.6411V34.2638H47.2602V29.4523H58.4549V34.2638H63.074V25.4748H63.1061ZM97.2678 29.4523H102.945L94.9262 18.0651L101.983 8.31373H96.947L89.8901 18.0651V8.31373H84.8862V29.4523H89.8901V19.0594L97.2678 29.4523ZM73.2102 11.8422C75.6801 11.8422 76.45 13.8951 76.45 16.5575V16.9744H69.4893C69.6176 13.6064 70.8366 11.8422 73.2102 11.8422ZM55.8888 25.4748H48.8319C50.2112 22.2992 50.5961 16.5254 50.5961 12.8686V12.2271H55.8888V25.4748Z" fill="black"/>
<path d="M19.7058 29.4519H14.6056V4.20751H12.3281C8.15813 4.20751 5.97691 6.2925 5.97691 9.40394C5.97691 12.9324 7.48452 14.5683 10.596 16.6533L13.1621 18.3854L5.78445 29.4519H0.299332L6.93922 19.5723C3.12208 16.8457 0.972943 14.1834 0.972943 9.69263C0.972943 4.0792 4.88631 0.26207 12.296 0.26207H19.6737V29.4519H19.7058Z" fill="#FC3F1D"/>
</svg>
