<svg width="124" height="72" viewBox="0 0 124 72" fill="none" xmlns="http://www.w3.org/2000/svg">
<path d="M56.744 24.7979C57.3093 25.2566 57.928 25.4859 58.6 25.4859C59.1333 25.4859 59.5707 25.3099 59.912 24.9579C60.264 24.6059 60.44 24.1526 60.44 23.5979C60.44 23.0112 60.2213 22.5366 59.784 22.1739C59.3573 21.8006 58.7813 21.6139 58.056 21.6139C57.672 21.6139 57.3573 21.6352 57.112 21.6779C57.0907 21.6779 57.064 21.6779 57.032 21.6779L56.984 21.6939C56.7813 21.6939 56.6213 21.6352 56.504 21.5179C56.3867 21.4006 56.328 21.2459 56.328 21.0539C56.328 21.0432 56.328 21.0219 56.328 20.9899C56.3387 20.9579 56.344 20.9366 56.344 20.9259L56.872 16.5419C56.8933 16.3712 56.968 16.2326 57.096 16.1259C57.224 16.0086 57.3733 15.9499 57.544 15.9499H61.656C61.816 15.9499 61.9547 16.0086 62.072 16.1259C62.1893 16.2432 62.248 16.3819 62.248 16.5419V17.1979C62.248 17.3579 62.1893 17.4966 62.072 17.6139C61.9547 17.7312 61.816 17.7899 61.656 17.7899H58.568L58.248 20.0139C58.4613 19.9712 58.6747 19.9499 58.888 19.9499C59.912 19.9499 60.7547 20.2752 61.416 20.9259C62.0773 21.5872 62.408 22.4512 62.408 23.5179C62.408 24.6806 62.04 25.6086 61.304 26.3019C60.5787 26.9846 59.6613 27.3259 58.552 27.3259C57.496 27.3259 56.4933 26.8832 55.544 25.9979C55.4267 25.8806 55.368 25.7472 55.368 25.5979C55.368 25.4272 55.4213 25.2886 55.528 25.1819L55.864 24.8139C55.9707 24.6859 56.1093 24.6219 56.28 24.6219C56.44 24.6219 56.5947 24.6806 56.744 24.7979ZM59.416 39.6219L57.864 37.7499V41.5579C57.864 41.7179 57.8053 41.8566 57.688 41.9739C57.5707 42.0912 57.432 42.1499 57.272 42.1499H56.616C56.456 42.1499 56.3173 42.0912 56.2 41.9739C56.0827 41.8566 56.024 41.7179 56.024 41.5579V35.5419C56.024 35.3819 56.0827 35.2432 56.2 35.1259C56.3173 35.0086 56.456 34.9499 56.616 34.9499H57.256C57.5227 34.9499 57.768 35.0779 57.992 35.3339L60.136 37.9579L62.152 35.3339C62.3547 35.0779 62.6 34.9499 62.888 34.9499H63.48C63.64 34.9499 63.7787 35.0086 63.896 35.1259C64.0133 35.2432 64.072 35.3819 64.072 35.5419V41.5579C64.072 41.7179 64.0133 41.8566 63.896 41.9739C63.7787 42.0912 63.64 42.1499 63.48 42.1499H62.824C62.664 42.1499 62.5253 42.0912 62.408 41.9739C62.2907 41.8566 62.232 41.7179 62.232 41.5579V37.7499L60.728 39.6219C60.5467 39.8352 60.328 39.9419 60.072 39.9419C59.7947 39.9419 59.576 39.8352 59.416 39.6219ZM72.8057 42.1499H72.1498C71.9898 42.1499 71.8511 42.0912 71.7337 41.9739C71.6164 41.8566 71.5578 41.7179 71.5578 41.5579V37.5899L68.4857 41.7499C68.2937 42.0166 68.0377 42.1499 67.7177 42.1499H66.9497C66.7897 42.1499 66.6511 42.0912 66.5337 41.9739C66.4164 41.8566 66.3577 41.7179 66.3577 41.5579V35.5419C66.3577 35.3819 66.4164 35.2432 66.5337 35.1259C66.6511 35.0086 66.7897 34.9499 66.9497 34.9499H67.6057C67.7657 34.9499 67.9044 35.0086 68.0217 35.1259C68.1391 35.2432 68.1977 35.3819 68.1977 35.5419V39.5099L71.2698 35.3499C71.4618 35.0832 71.7178 34.9499 72.0378 34.9499H72.8057C72.9658 34.9499 73.1044 35.0086 73.2218 35.1259C73.3391 35.2432 73.3977 35.3819 73.3977 35.5419V41.5579C73.3977 41.7179 73.3391 41.8566 73.2218 41.9739C73.1044 42.0912 72.9658 42.1499 72.8057 42.1499ZM81.2755 34.9499H81.9315C82.0915 34.9499 82.2302 35.0086 82.3475 35.1259C82.4648 35.2432 82.5235 35.3819 82.5235 35.5419V41.5579C82.5235 41.7179 82.4648 41.8566 82.3475 41.9739C82.2302 42.0912 82.0915 42.1499 81.9315 42.1499H81.2755C81.1155 42.1499 80.9768 42.0912 80.8595 41.9739C80.7422 41.8566 80.6835 41.7179 80.6835 41.5579V39.3979H77.5315V41.5579C77.5315 41.7179 77.4728 41.8566 77.3555 41.9739C77.2382 42.0912 77.0995 42.1499 76.9395 42.1499H76.2835C76.1235 42.1499 75.9848 42.0912 75.8675 41.9739C75.7502 41.8566 75.6915 41.7179 75.6915 41.5579V35.5419C75.6915 35.3819 75.7502 35.2432 75.8675 35.1259C75.9848 35.0086 76.1235 34.9499 76.2835 34.9499H76.9395C77.0995 34.9499 77.2382 35.0086 77.3555 35.1259C77.4728 35.2432 77.5315 35.3819 77.5315 35.5419V37.6699H80.6835V35.5419C80.6835 35.3819 80.7422 35.2432 80.8595 35.1259C80.9768 35.0086 81.1155 34.9499 81.2755 34.9499ZM86.1825 35.3979L87.6705 38.8859C87.6918 38.9392 87.8092 39.2859 88.0225 39.9259C88.0865 39.5312 88.1718 39.1792 88.2785 38.8699L89.3825 35.5099C89.5105 35.1366 89.7718 34.9499 90.1665 34.9499H90.6305C90.8225 34.9499 90.9878 35.0192 91.1265 35.1579C91.2652 35.2966 91.3345 35.4619 91.3345 35.6539C91.3345 35.7392 91.3185 35.8299 91.2865 35.9259L88.8385 42.1499C88.3478 43.4192 87.8998 44.2726 87.4945 44.7099C87.0998 45.1366 86.6198 45.3499 86.0545 45.3499C85.6385 45.3499 85.2332 45.2486 84.8385 45.0459C84.6465 44.9499 84.5505 44.7952 84.5505 44.5819C84.5505 44.5072 84.5665 44.4379 84.5985 44.3739L84.8065 43.9419C84.9132 43.7072 85.0678 43.5899 85.2705 43.5899C85.3665 43.5899 85.4892 43.6059 85.6385 43.6379C85.6705 43.6486 85.7398 43.6539 85.8465 43.6539C86.2838 43.6539 86.6518 43.2806 86.9505 42.5339L87.1105 42.1499L84.2145 35.8939C84.1718 35.7979 84.1505 35.7072 84.1505 35.6219C84.1505 35.4406 84.2145 35.2859 84.3425 35.1579C84.4705 35.0192 84.6305 34.9499 84.8225 34.9499H85.5105C85.8305 34.9499 86.0545 35.0992 86.1825 35.3979ZM95.8949 42.1499H95.2389C95.0789 42.1499 94.9402 42.0912 94.8229 41.9739C94.7055 41.8566 94.6469 41.7179 94.6469 41.5579V36.7899H92.8709C92.7109 36.7899 92.5722 36.7312 92.4549 36.6139C92.3375 36.4966 92.2789 36.3579 92.2789 36.1979V35.5419C92.2789 35.3819 92.3375 35.2432 92.4549 35.1259C92.5722 35.0086 92.7109 34.9499 92.8709 34.9499H98.2469C98.4069 34.9499 98.5455 35.0086 98.6629 35.1259C98.7802 35.2432 98.8389 35.3819 98.8389 35.5419V36.1979C98.8389 36.3579 98.7802 36.4966 98.6629 36.6139C98.5455 36.7312 98.4069 36.7899 98.2469 36.7899H96.4869V41.5579C96.4869 41.7179 96.4282 41.8566 96.3109 41.9739C96.1935 42.0912 96.0549 42.1499 95.8949 42.1499ZM62.472 57.1499H61.816C61.656 57.1499 61.5173 57.0912 61.4 56.9739C61.2827 56.8566 61.224 56.7179 61.224 56.5579V52.5899L58.152 56.7499C57.96 57.0166 57.704 57.1499 57.384 57.1499H56.616C56.456 57.1499 56.3173 57.0912 56.2 56.9739C56.0827 56.8566 56.024 56.7179 56.024 56.5579V50.5419C56.024 50.3819 56.0827 50.2432 56.2 50.1259C56.3173 50.0086 56.456 49.9499 56.616 49.9499H57.272C57.432 49.9499 57.5707 50.0086 57.688 50.1259C57.8053 50.2432 57.864 50.3819 57.864 50.5419V54.5099L60.936 50.3499C61.128 50.0832 61.384 49.9499 61.704 49.9499H62.472C62.632 49.9499 62.7707 50.0086 62.888 50.1259C63.0053 50.2432 63.064 50.3819 63.064 50.5419V56.5579C63.064 56.7179 63.0053 56.8566 62.888 56.9739C62.7707 57.0912 62.632 57.1499 62.472 57.1499ZM71.8204 49.8699C73.9964 49.8699 75.0844 50.4992 75.0844 51.7579C75.0844 52.1632 74.9564 52.5206 74.7004 52.8299C74.4444 53.1286 74.1244 53.3099 73.7404 53.3739C74.7644 53.6299 75.2764 54.1899 75.2764 55.0539C75.2764 56.5046 74.135 57.2299 71.8524 57.2299C71.7777 57.2299 71.367 57.2192 70.6204 57.1979C70.4604 57.1979 70.295 57.1926 70.1244 57.1819C69.9644 57.1819 69.8417 57.1766 69.7564 57.1659C69.671 57.1659 69.6124 57.1659 69.5804 57.1659C69.4097 57.1552 69.2657 57.0966 69.1484 56.9899C69.0417 56.8726 68.9884 56.7286 68.9884 56.5579V50.5419C68.9884 50.3712 69.0417 50.2326 69.1484 50.1259C69.2657 50.0086 69.4097 49.9446 69.5804 49.9339C70.3057 49.8912 71.0524 49.8699 71.8204 49.8699ZM71.9804 54.0939H70.8284V55.6939C71.4684 55.7366 71.8737 55.7579 72.0444 55.7579C72.4497 55.7579 72.7644 55.6832 72.9884 55.5339C73.223 55.3846 73.3404 55.1819 73.3404 54.9259C73.3404 54.3712 72.887 54.0939 71.9804 54.0939ZM70.8284 51.3899V52.9739H72.0284C72.359 52.9739 72.6257 52.8992 72.8284 52.7499C73.031 52.6006 73.1324 52.3979 73.1324 52.1419C73.1324 51.6192 72.7484 51.3579 71.9804 51.3579C71.5537 51.3579 71.1697 51.3686 70.8284 51.3899ZM79.0996 50.5419V51.9179H79.9956C81.073 51.9179 81.8676 52.1419 82.3796 52.5899C82.9023 53.0379 83.1636 53.6459 83.1636 54.4139C83.1636 55.2352 82.8863 55.8966 82.3316 56.3979C81.777 56.8992 80.9503 57.1499 79.8516 57.1499H77.8516C77.6916 57.1499 77.553 57.0912 77.4356 56.9739C77.3183 56.8566 77.2596 56.7179 77.2596 56.5579V50.5419C77.2596 50.3819 77.3183 50.2432 77.4356 50.1259C77.553 50.0086 77.6916 49.9499 77.8516 49.9499H78.5076C78.6676 49.9499 78.8063 50.0086 78.9236 50.1259C79.041 50.2432 79.0996 50.3819 79.0996 50.5419ZM84.7796 49.9499H85.4356C85.5956 49.9499 85.7343 50.0086 85.8516 50.1259C85.969 50.2432 86.0276 50.3819 86.0276 50.5419V56.5579C86.0276 56.7179 85.969 56.8566 85.8516 56.9739C85.7343 57.0912 85.5956 57.1499 85.4356 57.1499H84.7796C84.6196 57.1499 84.481 57.0912 84.3636 56.9739C84.2463 56.8566 84.1876 56.7179 84.1876 56.5579V50.5419C84.1876 50.3819 84.2463 50.2432 84.3636 50.1259C84.481 50.0086 84.6196 49.9499 84.7796 49.9499ZM79.8356 53.3899H79.0996V55.5499H79.8196C80.7476 55.5499 81.2116 55.1926 81.2116 54.4779C81.2116 53.7526 80.753 53.3899 79.8356 53.3899ZM88.7441 49.9499H89.3521C89.6615 49.9499 89.9068 50.0886 90.0881 50.3659L91.3521 52.3339L92.6481 50.3499C92.8188 50.0832 93.0695 49.9499 93.4001 49.9499H93.8801C94.0615 49.9499 94.2055 50.0086 94.3121 50.1259C94.4295 50.2432 94.4881 50.3872 94.4881 50.5579C94.4881 50.6859 94.4508 50.8032 94.3761 50.9099L92.6481 53.3899L94.5521 56.1739C94.6268 56.2806 94.6641 56.3979 94.6641 56.5259C94.6641 56.6966 94.6055 56.8459 94.4881 56.9739C94.3708 57.0912 94.2215 57.1499 94.0401 57.1499H93.4481C93.1281 57.1499 92.8775 57.0112 92.6961 56.7339L91.2881 54.5579L89.8161 56.7499C89.6455 57.0166 89.3948 57.1499 89.0641 57.1499H88.5841C88.4028 57.1499 88.2535 57.0912 88.1361 56.9739C88.0295 56.8566 87.9761 56.7126 87.9761 56.5419C87.9761 56.4139 88.0135 56.2966 88.0881 56.1899L89.9761 53.4859L88.2321 50.9259C88.1575 50.8192 88.1201 50.7019 88.1201 50.5739C88.1201 50.4032 88.1788 50.2592 88.2961 50.1419C88.4135 50.0139 88.5628 49.9499 88.7441 49.9499ZM102.497 56.2539C101.782 56.9686 100.833 57.3259 99.6491 57.3259C98.4758 57.3259 97.5318 56.9686 96.8171 56.2539C96.0918 55.5499 95.7291 54.6486 95.7291 53.5499C95.7291 52.4619 96.0918 51.5552 96.8171 50.8299C97.5425 50.1259 98.4865 49.7739 99.6491 49.7739C100.833 49.7739 101.782 50.1259 102.497 50.8299C103.212 51.5446 103.569 52.4512 103.569 53.5499C103.569 54.6486 103.212 55.5499 102.497 56.2539ZM99.6491 51.5019C99.0945 51.5019 98.6305 51.6939 98.2571 52.0779C97.8838 52.4619 97.6971 52.9526 97.6971 53.5499C97.6971 54.1472 97.8785 54.6432 98.2411 55.0379C98.6145 55.4219 99.0838 55.6139 99.6491 55.6139C100.225 55.6139 100.694 55.4219 101.057 55.0379C101.43 54.6539 101.617 54.1579 101.617 53.5499C101.617 52.9526 101.43 52.4619 101.057 52.0779C100.684 51.6939 100.214 51.5019 99.6491 51.5019ZM114.276 50.8139L112.484 53.4379L114.468 56.2859C114.532 56.3819 114.564 56.4832 114.564 56.5899C114.564 56.7499 114.511 56.8832 114.404 56.9899C114.308 57.0966 114.18 57.1499 114.02 57.1499H113.396C113.044 57.1499 112.783 57.0059 112.612 56.7179L110.756 53.8539C110.671 53.7046 110.628 53.5606 110.628 53.4219C110.628 53.2939 110.665 53.1606 110.74 53.0219L112.436 50.3659C112.617 50.0886 112.863 49.9499 113.172 49.9499H113.828C113.988 49.9499 114.116 50.0032 114.212 50.1099C114.319 50.2166 114.372 50.3499 114.372 50.5099C114.372 50.6166 114.34 50.7179 114.276 50.8139ZM109.156 49.9499H109.812C109.972 49.9499 110.111 50.0086 110.228 50.1259C110.345 50.2432 110.404 50.3819 110.404 50.5419V56.5579C110.404 56.7179 110.345 56.8566 110.228 56.9739C110.111 57.0912 109.972 57.1499 109.812 57.1499H109.156C108.996 57.1499 108.857 57.0912 108.74 56.9739C108.623 56.8566 108.564 56.7179 108.564 56.5579V50.5419C108.564 50.3819 108.623 50.2432 108.74 50.1259C108.857 50.0086 108.996 49.9499 109.156 49.9499ZM104.548 56.2859L106.5 53.4379L104.692 50.8139C104.628 50.7179 104.596 50.6166 104.596 50.5099C104.596 50.3499 104.644 50.2166 104.74 50.1099C104.847 50.0032 104.98 49.9499 105.14 49.9499H105.828C106.169 49.9499 106.431 50.0939 106.612 50.3819L108.228 53.0219C108.409 53.2992 108.409 53.5766 108.228 53.8539L106.404 56.7339C106.223 57.0112 105.977 57.1499 105.668 57.1499H104.996C104.836 57.1499 104.703 57.0966 104.596 56.9899C104.5 56.8832 104.452 56.7499 104.452 56.5899C104.452 56.4832 104.484 56.3819 104.548 56.2859ZM117.643 50.3979L119.131 53.8859C119.152 53.9392 119.269 54.2859 119.483 54.9259C119.547 54.5312 119.632 54.1792 119.739 53.8699L120.843 50.5099C120.971 50.1366 121.232 49.9499 121.627 49.9499H122.091C122.283 49.9499 122.448 50.0192 122.587 50.1579C122.725 50.2966 122.795 50.4619 122.795 50.6539C122.795 50.7392 122.779 50.8299 122.747 50.9259L120.299 57.1499C119.808 58.4192 119.36 59.2726 118.955 59.7099C118.56 60.1366 118.08 60.3499 117.515 60.3499C117.099 60.3499 116.693 60.2486 116.299 60.0459C116.107 59.9499 116.011 59.7952 116.011 59.5819C116.011 59.5072 116.027 59.4379 116.059 59.3739L116.267 58.9419C116.373 58.7072 116.528 58.5899 116.731 58.5899C116.827 58.5899 116.949 58.6059 117.099 58.6379C117.131 58.6486 117.2 58.6539 117.307 58.6539C117.744 58.6539 118.112 58.2806 118.411 57.5339L118.571 57.1499L115.675 50.8939C115.632 50.7979 115.611 50.7072 115.611 50.6219C115.611 50.4406 115.675 50.2859 115.803 50.1579C115.931 50.0192 116.091 49.9499 116.283 49.9499H116.971C117.291 49.9499 117.515 50.0992 117.643 50.3979Z" fill="#353430"/>
<path d="M22.9297 60.8491C23.3297 62.4491 25.7297 62.9491 26.5297 60.8491" stroke="#353430" stroke-width="0.7" stroke-miterlimit="10" stroke-linecap="round"/>
<path d="M29.8291 50.8491C33.1291 55.2491 38.7291 52.1491 39.0291 50.8491" stroke="#353430" stroke-width="0.7" stroke-miterlimit="10" stroke-linecap="round"/>
<path d="M9.92969 50.8491C13.2297 55.2491 18.5297 52.5491 19.1297 50.8491" stroke="#353430" stroke-width="0.7" stroke-miterlimit="10" stroke-linecap="round"/>
<path d="M16.0457 2.70121L16.0476 2.70029C21.1906 0.202267 25.0059 0.319634 27.9591 1.30007C30.2108 2.04758 31.9605 3.28416 33.4862 4.36243C33.9993 4.72502 34.487 5.06971 34.96 5.37189L34.9607 5.37237C38.1299 7.38914 39.8559 10.2584 40.4353 13.8286C40.8476 16.507 41.7803 18.7907 43.5405 20.965C48.8542 27.5584 51.0193 35.2266 50.2316 43.6014C50.0258 45.5885 49.4903 47.5536 48.9424 49.564C48.7028 50.4432 48.4609 51.3311 48.2431 52.2332L48.2408 52.2428L48.2389 52.2525C48.2081 52.4066 48.1013 52.635 47.9387 52.8382C47.7684 53.0511 47.6118 53.1441 47.5311 53.1602L47.5194 53.1626L47.5079 53.1655C46.7912 53.3446 46.3452 53.6959 46.07 54.1775C45.8529 54.5574 45.7565 55.0062 45.6749 55.3865C45.6638 55.4379 45.6531 55.4879 45.6423 55.5364C44.6139 59.6944 42.3907 63.6436 38.873 66.5527C35.358 69.4596 30.5235 71.3505 24.2292 71.3505C11.7543 71.3505 4.0265 60.6258 3.72917 51.4425C3.72917 51.3444 3.72909 51.177 3.71461 51.0178C3.70722 50.9364 3.69477 50.841 3.67123 50.7495C3.6552 50.6871 3.61918 50.5623 3.52916 50.4491C0.638132 46.0947 -0.556172 39.4587 1.61288 31.0771C2.51953 27.6517 3.12581 24.2195 3.32818 20.682C3.91502 12.1868 8.48604 6.33378 16.0457 2.70121ZM44.7216 51.2636L44.7216 51.2636L44.7199 51.2545C43.8039 46.5729 41.763 42.2748 38.2774 38.8917L38.2774 38.8917L38.2725 38.887C34.5984 35.4171 30.1227 33.3891 25.6034 31.7818C23.6731 31.0331 21.8519 31.1493 19.9711 31.7762L19.971 31.7761L19.961 31.7797C15.6345 33.3248 12.5644 36.3077 9.74791 39.627L9.74579 39.6296C6.08611 44.0009 3.89348 48.9586 5.34268 55.066L5.34282 55.0666C7.49816 64.0985 15.4048 70.2505 24.9292 70.2505C33.7329 70.2505 41.1293 65.124 43.9018 56.9137C44.5054 55.2029 45.0454 53.0986 44.7216 51.2636ZM3.15781 45.9173L3.17066 45.9537L3.18893 45.9876C3.29477 46.1842 3.4383 46.3807 3.64544 46.4976C3.88809 46.6344 4.14888 46.624 4.36812 46.5174C4.55707 46.4255 4.69842 46.2722 4.79973 46.1382C4.90643 45.997 5.00202 45.8319 5.08705 45.6653C5.2568 45.3326 5.41221 44.9375 5.54428 44.5941C5.56135 44.5497 5.57793 44.5065 5.59405 44.4644C5.70943 44.1636 5.80092 43.9251 5.87638 43.7741L5.88455 43.7578L5.89151 43.7409C8.62876 37.0933 13.6091 32.9782 20.2101 30.4167C24.6356 28.7067 28.8542 26.5971 32.9593 24.3945C34.5911 23.5776 36.3697 22.3342 37.4374 20.7396C38.8471 18.8553 39.4093 16.9207 39.3161 14.9643C39.2234 13.0172 38.4838 11.087 37.3594 9.1958C35.2561 5.6215 30.5933 3.66354 26.8107 5.50079L26.8107 5.50076L26.8056 5.50333C22.7919 7.51014 18.8626 9.72544 15.2292 12.4505L15.2291 12.4504L15.2203 12.4574C10.96 15.8047 6.78085 20.8448 4.24532 26.7019C1.70785 32.5635 0.806127 39.2713 3.15781 45.9173ZM48.9253 43.2126L48.9265 43.2034L48.9273 43.1941C49.6404 35.0441 46.8842 28.0307 42.4432 21.5702C42.0222 20.9396 41.5081 20.4482 40.8481 20.39C40.1829 20.3313 39.5904 20.7307 39.0619 21.3112C36.1399 24.4269 32.5319 26.2909 25.3208 29.596L23.9925 30.2048L25.4154 30.5374C29.1805 31.4176 33.587 33.6284 37.3358 36.7236C41.084 39.8183 44.126 43.7563 45.2427 48.0667C45.3112 48.378 45.4061 48.6528 45.5406 48.8673C45.6766 49.084 45.892 49.2958 46.2069 49.3408C46.5167 49.3851 46.779 49.2467 46.9643 49.0929C47.1525 48.9367 47.3199 48.7188 47.4693 48.4721C48.061 47.4951 48.6222 45.6375 48.9253 43.2126ZM4.54373 17.3308L4.5436 17.3307L4.54107 17.3421C4.52209 17.4275 4.50129 17.5165 4.47974 17.6087C4.29007 18.4202 4.04241 19.4799 4.46493 20.5362L4.47265 20.5555L4.48195 20.5741C4.84609 21.3024 5.81426 21.3568 6.23786 20.7387C13.4634 10.8905 24.0778 5.83842 27.6332 4.14618C27.8157 4.05928 27.9797 3.98124 28.1236 3.91187C28.512 3.76298 28.6542 3.38401 28.6542 3.10054C28.6542 2.81628 28.5112 2.436 28.1204 2.28798C26.3104 1.44403 24.0201 1.34809 22.4675 1.55434C18.4502 2.01897 14.46 3.99652 11.2369 6.82471C8.01249 9.65402 5.52259 13.3638 4.54373 17.3308Z" fill="black" stroke="#353430"/>
<path d="M18.0406 55.2038L18.0683 55.1909L18.0942 55.1747C18.4533 54.9503 18.7228 54.8674 18.8992 54.8559C19.0616 54.8453 19.1212 54.893 19.1495 54.9261C19.1904 54.9738 19.2516 55.096 19.242 55.3506C19.2327 55.599 19.1558 55.932 18.9769 56.3373C18.3443 57.5947 17.1618 58.5146 15.8013 58.9914C14.4352 59.4701 12.9377 59.4847 11.7178 58.9877L11.7178 58.9877L11.7149 58.9865C10.4137 58.4661 9.75173 57.0586 10.2664 55.9947C10.5028 55.6197 10.7835 55.2654 11.1947 55.0826C11.5901 54.9069 12.2105 54.8465 13.2201 55.3049C14.8754 56.0766 16.4312 55.9549 18.0406 55.2038Z" fill="black" stroke="#353430"/>
<mask id="path-7-inside-1_49_17430" fill="white">
<path d="M30.4292 54.8506C30.5292 54.8506 30.8292 54.8506 31.3292 55.1506C32.2292 55.5506 33.0292 55.8506 33.9292 55.8506C34.7292 55.8506 35.4292 55.6506 36.2292 55.3506C36.7292 55.1506 37.2292 54.9506 37.6292 54.9506C38.3292 54.9506 38.8292 55.3506 39.1292 56.0506C39.4292 56.6506 39.3292 57.2506 39.2292 57.5506C39.0292 58.1506 38.4292 58.7506 37.7292 59.0506C37.1292 59.2506 36.5292 59.4506 35.8292 59.4506C33.5292 59.4506 31.4292 58.2506 30.5292 56.4506C30.1292 55.6506 30.2292 55.1506 30.3292 55.0506C30.2292 54.8506 30.3292 54.8506 30.4292 54.8506ZM30.4292 54.3506C29.6292 54.3506 29.3292 55.2506 30.0292 56.5506C31.1292 58.6506 33.5292 59.8506 35.8292 59.8506C36.5292 59.8506 37.3292 59.7506 37.9292 59.4506C39.4292 58.8506 40.3292 57.1506 39.6292 55.7506C39.3292 55.1506 38.7292 54.3506 37.6292 54.3506C37.2292 54.3506 36.6292 54.4506 36.0292 54.7506C35.3292 55.0506 34.6292 55.2506 33.9292 55.2506C33.1292 55.2506 32.3292 55.0506 31.5292 54.6506C31.1292 54.4506 30.7292 54.3506 30.4292 54.3506Z"/>
</mask>
<path d="M30.4292 54.8506C30.5292 54.8506 30.8292 54.8506 31.3292 55.1506C32.2292 55.5506 33.0292 55.8506 33.9292 55.8506C34.7292 55.8506 35.4292 55.6506 36.2292 55.3506C36.7292 55.1506 37.2292 54.9506 37.6292 54.9506C38.3292 54.9506 38.8292 55.3506 39.1292 56.0506C39.4292 56.6506 39.3292 57.2506 39.2292 57.5506C39.0292 58.1506 38.4292 58.7506 37.7292 59.0506C37.1292 59.2506 36.5292 59.4506 35.8292 59.4506C33.5292 59.4506 31.4292 58.2506 30.5292 56.4506C30.1292 55.6506 30.2292 55.1506 30.3292 55.0506C30.2292 54.8506 30.3292 54.8506 30.4292 54.8506ZM30.4292 54.3506C29.6292 54.3506 29.3292 55.2506 30.0292 56.5506C31.1292 58.6506 33.5292 59.8506 35.8292 59.8506C36.5292 59.8506 37.3292 59.7506 37.9292 59.4506C39.4292 58.8506 40.3292 57.1506 39.6292 55.7506C39.3292 55.1506 38.7292 54.3506 37.6292 54.3506C37.2292 54.3506 36.6292 54.4506 36.0292 54.7506C35.3292 55.0506 34.6292 55.2506 33.9292 55.2506C33.1292 55.2506 32.3292 55.0506 31.5292 54.6506C31.1292 54.4506 30.7292 54.3506 30.4292 54.3506Z" fill="black"/>
<path d="M31.3292 55.1506L30.8147 56.0081L30.8671 56.0396L30.923 56.0644L31.3292 55.1506ZM36.2292 55.3506L36.5803 56.2869L36.5905 56.2831L36.6006 56.2791L36.2292 55.3506ZM39.1292 56.0506L38.21 56.4445L38.2216 56.4715L38.2347 56.4978L39.1292 56.0506ZM37.7292 59.0506L38.0454 59.9993L38.0849 59.9861L38.1231 59.9697L37.7292 59.0506ZM30.3292 55.0506L31.0363 55.7577L31.5459 55.248L31.2236 54.6034L30.3292 55.0506ZM30.0292 56.5506L30.9151 56.0865L30.9096 56.0765L30.0292 56.5506ZM37.9292 59.4506L37.5578 58.5221L37.5192 58.5376L37.482 58.5562L37.9292 59.4506ZM36.0292 54.7506L36.4231 55.6697L36.4501 55.6582L36.4764 55.645L36.0292 54.7506ZM30.4292 55.8506C30.4471 55.8506 30.4465 55.8507 30.4483 55.8509C30.4508 55.8511 30.4633 55.8524 30.4866 55.8582C30.5326 55.8697 30.6416 55.9042 30.8147 56.0081L31.8437 54.2931C31.1597 53.8827 30.6739 53.8506 30.4292 53.8506V55.8506ZM30.923 56.0644C31.8378 56.471 32.8035 56.8506 33.9292 56.8506V54.8506C33.2549 54.8506 32.6205 54.6302 31.7353 54.2368L30.923 56.0644ZM33.9292 56.8506C34.9073 56.8506 35.7399 56.6021 36.5803 56.2869L35.878 54.4143C35.1184 54.6991 34.551 54.8506 33.9292 54.8506V56.8506ZM36.6006 56.2791C36.8584 56.1759 37.0725 56.0908 37.2678 56.0292C37.4688 55.9657 37.58 55.9506 37.6292 55.9506V53.9506C37.2783 53.9506 36.9395 54.0355 36.6655 54.122C36.3858 54.2103 36.1 54.3252 35.8578 54.4221L36.6006 56.2791ZM37.6292 55.9506C37.7762 55.9506 37.8627 55.9882 37.9292 56.0381C38.006 56.0957 38.1107 56.2127 38.21 56.4445L40.0483 55.6567C39.8477 55.1885 39.5523 54.7555 39.1292 54.4381C38.6956 54.1129 38.1821 53.9506 37.6292 53.9506V55.9506ZM38.2347 56.4978C38.3743 56.7769 38.3317 57.0806 38.2805 57.2344L40.1779 57.8668C40.3266 57.4206 40.484 56.5243 40.0236 55.6034L38.2347 56.4978ZM38.2805 57.2344C38.1891 57.5084 37.8311 57.9189 37.3353 58.1314L38.1231 59.9697C39.0272 59.5822 39.8692 58.7928 40.1779 57.8668L38.2805 57.2344ZM37.4129 58.1019C36.7973 58.3071 36.3441 58.4506 35.8292 58.4506V60.4506C36.7142 60.4506 37.461 60.1941 38.0454 59.9993L37.4129 58.1019ZM35.8292 58.4506C33.8477 58.4506 32.1288 57.4138 31.4236 56.0034L29.6347 56.8978C30.7295 59.0873 33.2107 60.4506 35.8292 60.4506V58.4506ZM31.4236 56.0034C31.2748 55.7057 31.2444 55.5144 31.2403 55.4355C31.2381 55.3943 31.2435 55.3936 31.2357 55.4269C31.2318 55.4435 31.2221 55.4795 31.1996 55.528C31.1803 55.5694 31.1329 55.6611 31.0363 55.7577L29.6221 54.3435C29.4031 54.5624 29.3221 54.8269 29.2883 54.9711C29.2461 55.1514 29.2327 55.3444 29.2431 55.5406C29.2639 55.9368 29.3836 56.3955 29.6347 56.8978L31.4236 56.0034ZM31.2236 54.6034C31.2252 54.6066 31.2345 54.6253 31.2454 54.6568C31.2558 54.6868 31.2736 54.7451 31.2824 54.8245C31.3016 54.9974 31.2764 55.3176 31.0113 55.5827C30.7931 55.8009 30.5479 55.8366 30.4987 55.8437C30.4365 55.8525 30.3857 55.8506 30.4292 55.8506V53.8506C30.4227 53.8506 30.3218 53.8486 30.2159 53.8638C30.1229 53.877 29.8403 53.9253 29.5971 54.1685C29.307 54.4586 29.2692 54.8162 29.2947 55.0454C29.3169 55.2455 29.389 55.4064 29.4347 55.4978L31.2236 54.6034ZM30.4292 53.3506C30.037 53.3506 29.6365 53.4638 29.3026 53.7334C28.9697 54.0021 28.7761 54.367 28.6912 54.7428C28.5289 55.4617 28.7417 56.2689 29.1487 57.0247L30.9096 56.0765C30.6166 55.5323 30.6294 55.2395 30.6421 55.1833C30.6448 55.1716 30.6324 55.2303 30.5589 55.2896C30.4843 55.3498 30.4214 55.3506 30.4292 55.3506V53.3506ZM29.1433 57.0146C30.4454 59.5004 33.2253 60.8506 35.8292 60.8506V58.8506C33.8331 58.8506 31.8129 57.8008 30.915 56.0866L29.1433 57.0146ZM35.8292 60.8506C36.59 60.8506 37.5724 60.747 38.3764 60.345L37.482 58.5562C37.0859 58.7542 36.4684 58.8506 35.8292 58.8506V60.8506ZM38.3006 60.3791C40.1817 59.6266 41.5574 57.371 40.5236 55.3034L38.7347 56.1978C39.1009 56.9302 38.6767 58.0746 37.5578 58.5221L38.3006 60.3791ZM40.5236 55.3034C40.1706 54.5973 39.3121 53.3506 37.6292 53.3506V55.3506C38.1462 55.3506 38.4878 55.7039 38.7347 56.1978L40.5236 55.3034ZM37.6292 53.3506C37.0856 53.3506 36.3309 53.4817 35.582 53.8562L36.4764 55.645C36.9275 55.4195 37.3728 55.3506 37.6292 55.3506V53.3506ZM35.6352 53.8314C35.001 54.1033 34.4419 54.2506 33.9292 54.2506V56.2506C34.8165 56.2506 35.6573 55.9979 36.4231 55.6697L35.6352 53.8314ZM33.9292 54.2506C33.3019 54.2506 32.6541 54.095 31.9764 53.7562L31.082 55.545C32.0042 56.0062 32.9564 56.2506 33.9292 56.2506V54.2506ZM31.9764 53.7562C31.4749 53.5054 30.9214 53.3506 30.4292 53.3506V55.3506C30.5369 55.3506 30.7834 55.3957 31.082 55.545L31.9764 53.7562Z" fill="#353430" mask="url(#path-7-inside-1_49_17430)"/>
</svg>
