<svg width="28" height="27" viewBox="0 0 28 27" fill="none" xmlns="http://www.w3.org/2000/svg">
<path d="M25.481 6.95517C26.5569 8.83793 27.1844 11.0793 27.1844 13.5C27.1844 20.6724 21.3569 26.5 14.1844 26.5C7.01203 26.5 1.18445 20.6724 1.18445 13.5C1.18445 6.32759 7.01203 0.5 14.1844 0.5C17.412 0.5 20.3707 1.66552 22.612 3.63793" stroke="black" stroke-miterlimit="10" stroke-linecap="round"/>
<path d="M6.29492 23.6309C6.29492 19.3274 9.79147 15.7412 14.1846 15.7412C18.5777 15.7412 22.0742 19.2378 22.0742 23.6309" stroke="black" stroke-miterlimit="10"/>
<path d="M14.1848 14.0383C16.4625 14.0383 18.3089 12.1919 18.3089 9.91418C18.3089 7.63648 16.4625 5.79004 14.1848 5.79004C11.9071 5.79004 10.0607 7.63648 10.0607 9.91418C10.0607 12.1919 11.9071 14.0383 14.1848 14.0383Z" stroke="black" stroke-miterlimit="10"/>
<circle cx="24.0465" cy="5.43119" r="0.448276" fill="black"/>
</svg>
