<svg width="17" height="16" viewBox="0 0 17 16" fill="none" xmlns="http://www.w3.org/2000/svg">
<path d="M12.6464 15.8536C12.8417 16.0488 13.1583 16.0488 13.3536 15.8536L16.5355 12.6716C16.7308 12.4763 16.7308 12.1597 16.5355 11.9645C16.3403 11.7692 16.0237 11.7692 15.8284 11.9645L13 14.7929L10.1716 11.9645C9.97631 11.7692 9.65973 11.7692 9.46447 11.9645C9.2692 12.1597 9.2692 12.4763 9.46447 12.6716L12.6464 15.8536ZM12.5 0.5L12.5 15.5L13.5 15.5L13.5 0.5L12.5 0.5Z" fill="black"/>
<path d="M3.64645 0.146445C3.84171 -0.0488167 4.15829 -0.0488167 4.35355 0.146445L7.53553 3.32843C7.7308 3.52369 7.7308 3.84027 7.53553 4.03553C7.34027 4.23079 7.02369 4.23079 6.82843 4.03553L4 1.20711L1.17157 4.03553C0.97631 4.2308 0.659728 4.2308 0.464466 4.03553C0.269203 3.84027 0.269203 3.52369 0.464466 3.32843L3.64645 0.146445ZM3.5 15.5L3.5 0.499999L4.5 0.499999L4.5 15.5L3.5 15.5Z" fill="black"/>
</svg>
