<svg width="16" height="17" viewBox="0 0 16 17" fill="none" xmlns="http://www.w3.org/2000/svg">
<path d="M7.71328 0.694407C7.80018 0.412086 8.19982 0.412087 8.28672 0.694408L9.95545 6.11554C9.99419 6.2414 10.1105 6.32728 10.2422 6.32728H15.6754C15.962 6.32728 16.0854 6.69088 15.8579 6.86533L11.435 10.2573C11.3355 10.3336 11.2939 10.4638 11.3308 10.5836L13.0136 16.0503C13.0995 16.3296 12.7761 16.5545 12.5443 16.3766L8.18257 13.0316C8.07487 12.949 7.92513 12.949 7.81743 13.0316L3.45572 16.3766C3.22386 16.5545 2.90047 16.3296 2.98644 16.0503L4.66919 10.5836C4.70608 10.4638 4.66454 10.3336 4.56503 10.2573L0.142083 6.86533C-0.0853987 6.69088 0.037972 6.32728 0.324648 6.32728H5.75783C5.88952 6.32728 6.00581 6.2414 6.04455 6.11554L7.71328 0.694407Z" fill="#F09661"/>
</svg>
