<svg width="22" height="22" viewBox="0 0 22 22" fill="none" xmlns="http://www.w3.org/2000/svg">
<circle cx="10.6844" cy="11" r="10.5" fill="#695D54"/>
<path d="M5.613 10.3515C8.58815 9.03433 10.5721 8.16599 11.5647 7.74646C14.3989 6.54859 14.9878 6.34051 15.3717 6.33356C15.4561 6.33212 15.6449 6.35339 15.7672 6.4542C15.8704 6.53933 15.8988 6.65433 15.9124 6.73505C15.926 6.81576 15.9429 6.99962 15.9295 7.14329C15.7759 8.78308 15.1113 12.7624 14.7732 14.599C14.6302 15.3761 14.3485 15.6367 14.0758 15.6622C13.4831 15.7176 13.0331 15.2642 12.459 14.8819C11.5608 14.2836 11.0534 13.9111 10.1815 13.3273C9.17387 12.6526 9.82706 12.2817 10.4013 11.6757C10.5516 11.5171 13.1629 9.1036 13.2134 8.88466C13.2197 8.85728 13.2256 8.75521 13.1659 8.70132C13.1062 8.64742 13.0182 8.66585 12.9546 8.68051C12.8645 8.70129 11.4296 9.66503 8.64981 11.5717C8.24251 11.8559 7.87359 11.9944 7.54305 11.9871C7.17866 11.9791 6.47771 11.7778 5.95662 11.6057C5.31749 11.3946 4.80953 11.2829 4.85376 10.9244C4.8768 10.7377 5.12988 10.5467 5.613 10.3515Z" fill="white"/>
</svg>
