<svg width="16" height="17" viewBox="0 0 16 17" fill="none" xmlns="http://www.w3.org/2000/svg">
<path d="M12.4241 0.299805C12.3171 0.299805 12.2102 0.299805 12.1032 0.299805C11.7568 0.440963 11.6156 0.701891 11.6456 1.06976C11.6584 1.21092 11.6456 1.35635 11.6456 1.50606C9.21165 1.50606 6.79485 1.50606 4.36095 1.50606C4.36095 1.35635 4.35239 1.21092 4.36095 1.06976C4.39517 0.701891 4.24973 0.440963 3.90325 0.299805C3.79631 0.299805 3.68938 0.299805 3.58244 0.299805C3.22313 0.46235 3.10336 0.753221 3.13758 1.12964C3.15041 1.25369 3.13758 1.38202 3.13758 1.5189C2.80821 1.5189 2.5045 1.50179 2.20508 1.52317C1.96554 1.54456 1.71316 1.58306 1.49073 1.66861C0.630952 1.99798 0.104818 2.7936 0.10054 3.73893C0.0962627 4.86391 0.10054 5.9889 0.10054 7.11816C0.10054 9.56918 0.10054 12.0159 0.10054 14.4669C0.10054 15.7545 1.05443 16.6998 2.3334 16.6998C6.12328 16.6998 9.90888 16.6998 13.6988 16.6998C14.9221 16.6998 15.8931 15.7545 15.8974 14.5311C15.906 10.9209 15.9017 7.30638 15.8974 3.69615C15.8974 3.17857 15.7306 2.70805 15.3969 2.31451C14.9606 1.79693 14.4003 1.52745 13.7201 1.52745C13.4378 1.52745 13.1598 1.52745 12.8689 1.52745C12.8518 1.04837 12.9844 0.539346 12.4241 0.299805ZM1.33246 6.68614C5.78964 6.68614 10.2254 6.68614 14.6698 6.68614C14.674 6.74602 14.6783 6.79735 14.6783 6.84868C14.6783 9.37669 14.6783 11.9047 14.6783 14.437C14.6783 14.5439 14.674 14.6509 14.6484 14.7535C14.5372 15.2027 14.1565 15.4807 13.6645 15.4807C9.91316 15.4807 6.16178 15.4764 2.41468 15.4893C1.82866 15.4893 1.32391 15.1043 1.32819 14.407C1.3453 11.9004 1.33246 9.3938 1.33246 6.8829C1.33246 6.81874 1.33246 6.75458 1.33246 6.68614ZM4.36095 2.74227C6.80341 2.74227 9.21593 2.74227 11.6456 2.74227C11.6456 2.83209 11.6456 2.90909 11.6456 2.98608C11.6498 3.15718 11.637 3.33256 11.6712 3.49511C11.7268 3.77742 12.0263 3.96991 12.3086 3.94425C12.6166 3.91431 12.8561 3.66193 12.8646 3.34112C12.8689 3.14007 12.8646 2.93903 12.8646 2.72943C13.1427 2.72943 13.3993 2.72943 13.6517 2.72943C14.2762 2.72943 14.6698 3.12296 14.674 3.74748C14.6783 4.26506 14.674 4.78264 14.674 5.30022C14.674 5.34727 14.6698 5.39433 14.6655 5.44138C10.2169 5.44138 5.7768 5.44138 1.33246 5.44138C1.33246 4.82114 1.32391 4.21373 1.33674 3.60632C1.3453 3.20424 1.649 2.82354 2.04681 2.77221C2.40184 2.72516 2.76543 2.76365 3.13758 2.76365C3.13758 2.92192 3.13758 3.09302 3.13758 3.26412C3.13758 3.66193 3.38567 3.94425 3.74071 3.94853C4.10429 3.9528 4.35239 3.67476 4.35667 3.26412C4.36095 3.08874 4.36095 2.92192 4.36095 2.74227Z" fill="black"/>
</svg>
