<svg width="41" height="42" viewBox="0 0 41 42" fill="none" xmlns="http://www.w3.org/2000/svg">
<circle cx="20.5" cy="20.7629" r="20.5" fill="#695D54"/>
<path d="M32.9999 21.0167C32.8377 20.4609 32.4187 20.0793 32.0537 19.6709C30.7561 18.1978 29.3165 16.8721 27.6741 15.774C26.0453 14.6827 24.3015 13.8457 22.3483 13.4908C20.6045 13.1761 18.9013 13.3301 17.2252 13.8792C14.9002 14.6492 12.9064 15.9615 11.1289 17.5952C10.1962 18.4523 9.34458 19.4097 8.48623 20.3471C7.97257 20.9029 7.98609 21.5858 8.46595 22.1616C9.91907 23.9025 11.5344 25.4693 13.4268 26.7414C15.0557 27.8395 16.7994 28.6764 18.7527 29.0313C20.4964 29.3527 22.1996 29.1987 23.8757 28.6497C26.194 27.8864 28.181 26.5807 29.9518 24.9537C30.898 24.0833 31.7496 23.1124 32.6282 22.1683C32.7972 21.9875 32.8783 21.7264 32.9999 21.5055C32.9999 21.3381 32.9999 21.1774 32.9999 21.0167ZM20.5437 26.9958C17.3333 26.9825 14.7515 24.418 14.7583 21.251C14.765 18.0773 17.3468 15.5129 20.5505 15.5129C23.7608 15.5062 26.3697 18.1041 26.3494 21.2711C26.3291 24.4582 23.7406 27.0092 20.5437 26.9958Z" fill="white"/>
<path d="M24.7383 20.2153C24.1232 20.2153 23.5454 20.2153 22.9583 20.2153C22.8464 19.5382 22.192 18.9834 21.6815 18.9834L21.6815 17.1589C23.2109 17.1589 24.7849 18.5884 24.7383 20.2153Z" fill="white"/>
<path d="M16.5853 22.0835C17.2004 22.0835 17.7782 22.0835 18.3653 22.0835C18.4772 22.7606 19.1316 23.3155 19.6422 23.3155L19.6422 25.1399C18.1127 25.1399 16.5387 23.7104 16.5853 22.0835Z" fill="white"/>
</svg>
