<svg width="29" height="24" viewBox="0 0 29 24" fill="none" xmlns="http://www.w3.org/2000/svg">
<path d="M15.3427 4.59605C15.4268 4.46455 15.4999 4.35032 15.5835 4.23151C16.4054 3.06847 17.3403 2.20338 18.4084 1.66472C19.4728 1.12798 20.6969 0.901202 22.1243 1.05523C26.0607 1.48061 28.6498 4.98562 28.1044 8.9605C27.909 10.3824 27.2744 11.6253 26.3856 12.7941C25.2427 14.2968 23.8599 15.5759 22.3765 16.7928C20.76 18.1174 19.1282 19.4212 17.4925 20.728C16.9333 21.1749 16.3736 21.622 15.8139 22.0705L15.8119 22.0721C15.5568 22.2786 15.3059 22.4795 15.055 22.6804C14.9544 22.761 14.8538 22.8415 14.7529 22.9224C13.9286 22.2624 13.1048 21.6056 12.2813 20.9491C11.0591 19.9746 9.83761 19.0007 8.61614 18.0176C6.86571 16.6086 5.16829 15.1946 3.7185 13.5245L3.71844 13.5244C2.78474 12.4492 2.02195 11.3009 1.64286 9.95376L1.64288 9.95376L1.64179 9.95001C1.54455 9.61453 1.48444 9.28325 1.41896 8.92236C1.39473 8.78884 1.36977 8.65126 1.34192 8.50792V8.50783V8.5054V8.50297V8.50054V8.49811V8.49568V8.49325V8.49082V8.48839V8.48596V8.48353V8.4811V8.47866V8.47623V8.4738V8.47137V8.46894V8.46651V8.46407V8.46164V8.45921V8.45678V8.45434V8.45191V8.44948V8.44705V8.44461V8.44218V8.43975V8.43731V8.43488V8.43245V8.43001V8.42758V8.42514V8.42271V8.42027V8.41784V8.41541V8.41297V8.41054V8.4081V8.40566V8.40323V8.40079V8.39836V8.39592V8.39349V8.39105V8.38861V8.38618V8.38374V8.38131V8.37887V8.37643V8.374V8.37156V8.36912V8.36668V8.36425V8.36181V8.35937V8.35693V8.3545V8.35206V8.34962V8.34718V8.34474V8.34231V8.33987V8.33743V8.33499V8.33255V8.33011V8.32767V8.32523V8.3228V8.32036V8.31792V8.31548V8.31304V8.3106V8.30816V8.30572V8.30328V8.30084V8.2984V8.29596V8.29352V8.29108V8.28864V8.2862V8.28376V8.28131V8.27887V8.27643V8.27399V8.27155V8.26911V8.26667V8.26423V8.26178V8.25934V8.2569V8.25446V8.25202V8.24958V8.24713V8.24469V8.24225V8.23981V8.23736V8.23492V8.23248V8.23004V8.22759V8.22515V8.22271V8.22026V8.21782V8.21538V8.21294V8.21049V8.20805V8.20561V8.20316V8.20072V8.19828V8.19583V8.19339V8.19094V8.1885V8.18606V8.18361V8.18117V8.17872V8.17628V8.17383V8.17139V8.16895V8.1665V8.16406V8.16161V8.15917V8.15672V8.15428V8.15183V8.14939V8.14694V8.1445V8.14205V8.13961V8.13716V8.13472V8.13227V8.12983V8.12738V8.12494V8.12249V8.12004V8.1176V8.11515V8.11271V8.11026V8.10782V8.10537V8.10292V8.10048V8.09803V8.09559V8.09314V8.09069V8.08825V8.0858V8.08336V8.08091V8.07846V8.07602V8.07357V8.07112V8.06868V8.06623V8.06378V8.06134V8.05889V8.05644V8.054V8.05155V8.0491V8.04666V8.04421V8.04176V8.03932V8.03687V8.03442V8.03198V8.02953V8.02708V8.02463V8.02219V8.01974V8.01729V8.01485V8.0124V8.00995V8.0075V8.00506V8.00261V8.00016V7.99772V7.99527V7.99282V7.99037V7.98793V7.98548V7.98303V7.98058V7.97814V7.97569V7.97324V7.97079V7.96835V7.9659V7.96345V7.961V7.95856V7.95611V7.95366V7.95121V7.94877V7.94632V7.94387V7.94142V7.93898V7.93653V7.93408V7.93163V7.92919V7.92674V7.92429V7.92184V7.9194V7.91695V7.9145V7.91205V7.90961V7.90716V7.90471V7.90226V7.89982V7.89737V7.89492V7.89247V7.89003V7.88758V7.88513V7.88268V7.88024V7.87779V7.87534V7.8729V7.87045V7.868V7.86555V7.86311V7.86066V7.85821V7.85576V7.85332V7.85087V7.84842V7.84598V7.84353V7.84108V7.83863V7.83619V7.83374V7.83129V7.82885V7.8264V7.82395V7.82151V7.81906V7.81661V7.81416V7.81172V7.80927V7.80682V7.80438V7.80193V7.79948V7.79704V7.79459V7.79215V7.7897V7.78725V7.78481V7.78236V7.77991V7.77747V7.77502V7.77257V7.77013V7.76768V7.76524V7.76279V7.76034V7.7579V7.75545V7.75301V7.75056V7.74812V7.74567V7.74322V7.74078V7.73833V7.73589V7.73344V7.731V7.72855V7.72611V7.72366V7.72122V7.71877V7.71633V7.71388V7.71144V7.70899V7.70655V7.7041V7.70166V7.69921V7.69677V7.69432V7.69188V7.68943V7.68699V7.68455V7.6821V7.67966V7.67721V7.67477V7.67233V7.66988V7.66744V7.66499V7.66255V7.66011V7.65766V7.65522V7.65278V7.65033V7.64789V7.64545V7.643V7.64056V7.63812V7.63567V7.63323V7.63079V7.62835V7.6259V7.62346V7.62102V7.61858V7.61614V7.61369V7.61125V7.60881V7.60637V7.60393V7.60148V7.59904V7.5966V7.59416V7.59172V7.58928V7.58684V7.58439V7.58195V7.57951V7.57707V7.57463V7.57219V7.56975V7.56731V7.56487V7.56243V7.55999V7.55755V7.55511V7.55267V7.55023V7.54779V7.54535V7.54291V7.54047V7.53803V7.53559V7.53316V7.53072V7.52828V7.52584V7.5234V7.52096V7.51852V7.51609V7.51365V7.51121V7.50877V7.50633V7.5039V7.50146V7.49902V7.49658V7.49415V7.49171V7.48927V7.48684V7.4844V7.48196V7.47953V7.47709V7.47465V7.47222V7.46978V7.46735V7.46491V7.46247V7.46004V7.4576V7.45517V7.45273V7.4503V7.44786V7.44543V7.44299V7.44056V7.43813V7.43569V7.43326V7.43082V7.42839V7.42596V7.42352V7.42109V7.41866V7.41622V7.41379V7.41136V7.40892V7.40649V7.40406V7.40163V7.39919V7.39676V7.39433V7.3919V7.38947V7.38704V7.3846V7.38217V7.37974V7.37731V7.37488V7.37245V7.37002V7.36759V7.36516V7.36273V7.3603V7.35787V7.35544V7.35301V7.35058V7.34815V7.34702C1.35784 7.24867 1.37378 7.15142 1.38982 7.0536L1.38988 7.0532C1.40794 6.94305 1.42612 6.83218 1.44431 6.71941C2.16862 2.37102 6.34108 0.21855 10.0417 1.25745L10.0425 1.25768C11.7203 1.72559 12.9617 2.80908 13.9702 4.27639C14.042 4.382 14.1064 4.48254 14.1777 4.59402C14.2276 4.67198 14.2809 4.75529 14.3426 4.84943L14.7604 5.48726L15.1788 4.84974C15.2401 4.75629 15.2933 4.6732 15.3427 4.59605Z" stroke="black"/>
</svg>
